<?xml version="1.0" encoding="UTF-8" standalone="no"?>
<svg width="42px" height="42px" viewBox="0 0 42 42" version="1.1" xmlns="http://www.w3.org/2000/svg" xmlns:xlink="http://www.w3.org/1999/xlink">
    <!-- Generator: Sketch 39.1 (31720) - http://www.bohemiancoding.com/sketch -->
    <title>Down Arrow</title>
    <desc>Created with Sketch.</desc>
    <defs></defs>
    <g id="Welcome" stroke="none" stroke-width="1" fill="none" fill-rule="evenodd">
        <g id="Aloha---Desktop" transform="translate(-619.000000, -651.000000)" fill="#FFFFFF">
            <g id="Header" transform="translate(0.000000, -190.000000)">
                <g id="Down-Arrow" transform="translate(619.000000, 841.000000)">
                    <g id="Chevron_Down_Circle">
                        <path d="M21,0 C9.40275,0 0,9.4014375 0,21 C0,32.59725 9.40275,42 21,42 C32.5985625,42 42,32.59725 42,21 C42,9.4014375 32.5985625,0 21,0 L21,0 Z M21,39.375 C10.8675,39.375 2.625,31.1325 2.625,21 C2.625,10.8675 10.8675,2.625 21,2.625 C31.1325,2.625 39.4156875,10.8675 39.4156875,21 C39.4156875,31.1325 31.1325,39.375 21,39.375 L21,39.375 Z" id="Shape"></path>
                        <path d="M29.26875,16.2658125 L21.0196875,24.39675 L12.770625,16.2645 C12.2535,15.7513125 11.4135,15.7513125 10.8950625,16.2645 C10.3779375,16.7776875 10.3779375,17.6085 10.8950625,18.120375 L20.08125,27.176625 C20.58525,27.675375 21.4515,27.6766875 21.9568125,27.176625 L31.143,18.1216875 C31.660125,17.6085 31.660125,16.7776875 31.143,16.2658125 C30.625875,15.7539375 29.7871875,15.7539375 29.26875,16.2658125 L29.26875,16.2658125 Z" id="Shape"></path>
                    </g>
                </g>
            </g>
        </g>
    </g>
</svg>