<?xml version="1.0" encoding="UTF-8" standalone="no"?>
<svg width="92px" height="87px" viewBox="0 0 92 87" version="1.1" xmlns="http://www.w3.org/2000/svg" xmlns:xlink="http://www.w3.org/1999/xlink">
    <!-- Generator: Sketch 39.1 (31720) - http://www.bohemiancoding.com/sketch -->
    <title>branding icon</title>
    <desc>Created with Sketch.</desc>
    <defs></defs>
    <g id="Welcome" stroke="none" stroke-width="1" fill="none" fill-rule="evenodd">
        <g id="Aloha---Desktop" transform="translate(-953.000000, -984.000000)" fill="#323638">
            <g id="Our-Services" transform="translate(0.000000, 860.000000)">
                <g id="branding" transform="translate(875.000000, 123.000000)">
                    <g id="branding-icon" transform="translate(78.000000, 0.000000)">
                        <path d="M51.902,36.398 C51.719,36.79 51.608,37.131 51.527,37.449 C50.012,36.653 48.273,36.38 46.592,36.689 C42.749,37.402 40.741,40.983 41.596,45.602 L41.729,46.317 C41.749,46.424 41.699,46.626 41.499,46.867 C41.09,47.358 40.145,47.884 38.72,47.884 C38.249,47.884 37.754,47.826 37.248,47.712 C36.835,47.62 36.411,47.796 36.184,48.15 C35.957,48.506 35.979,48.966 36.237,49.299 C38.006,51.581 41.421,52.999 45.151,52.999 L45.152,52.999 C47.241,52.999 49.292,52.539 51.083,51.669 C55.09,49.721 56.923,46.637 56.113,43.207 C55.97,42.601 55.772,42.038 55.527,41.509 C55.764,41.443 56.008,41.363 56.275,41.246 C60.888,39.211 68.385,33.315 75.839,25.86 C82.712,18.987 94.802,5.079 91.361,1.638 C90.937,1.213 90.355,0.998 89.632,0.998 C85.282,0.998 74.924,9.376 67.139,17.16 C59.899,24.401 54.061,31.772 51.902,36.398 L51.902,36.398 Z M50.208,49.871 C48.688,50.609 46.94,51 45.151,51 C45.151,51 45.151,51 45.15,51 C43.228,51 41.382,50.552 39.933,49.782 C41.227,49.559 42.341,48.982 43.037,48.145 C43.599,47.469 43.833,46.691 43.696,45.952 L43.563,45.238 C43.071,42.583 43.665,39.265 46.956,38.656 C48.365,38.393 49.827,38.691 51.055,39.486 C51.063,39.492 51.231,39.595 51.24,39.6 C53.309,40.987 53.89,42.501 54.166,43.666 C54.954,47.008 52.024,48.988 50.208,49.871 L50.208,49.871 Z M55.466,39.417 C55.01,39.618 54.768,39.648 54.664,39.648 C54.56,39.648 54.532,39.648 54.242,39.322 C54.154,39.223 54.065,39.124 53.97,39.028 L53.783,38.847 C53.348,38.433 53.218,38.308 53.714,37.243 C54.299,35.989 55.183,34.511 56.299,32.883 L60.111,36.695 C58.346,37.909 56.764,38.844 55.466,39.417 L55.466,39.417 Z M89.631,3 C89.846,3 89.935,3.043 89.946,3.054 C90.823,3.932 86.601,12.269 74.424,24.448 C70.044,28.827 65.572,32.715 61.762,35.521 L57.472,31.23 C60.264,27.437 64.136,22.994 68.553,18.577 C78.303,8.826 86.927,3 89.631,3 L89.631,3 Z" id="Shape"></path>
                        <path d="M90,15.943 L90,60.606 L2,60.606 L2,9.821 C2,9.077 2.586,8.471 3.306,8.471 L70.538,8.471 C71.278,7.815 72.053,7.144 72.852,6.471 L3.306,6.471 C1.483,6.471 0,7.973 0,9.821 L0,61.607 L0,61.689 L0,68.102 C0,69.945 1.483,71.445 3.306,71.445 L35.016,71.445 C34.689,74.165 33.653,82.784 33.322,85.53 L29,85.53 C28.448,85.53 28,85.978 28,86.53 C28,87.082 28.448,87.53 29,87.53 L63,87.53 C63.552,87.53 64,87.082 64,86.53 C64,85.978 63.552,85.53 63,85.53 L58.676,85.53 C58.347,82.785 57.335,74.322 56.991,71.445 L88.693,71.445 C90.516,71.445 91.999,69.945 91.999,68.102 L91.999,61.689 L91.999,61.607 L91.999,13.115 C91.413,14.002 90.75,14.943 90,15.943 L90,15.943 Z M35.336,85.529 C35.704,82.473 36.722,74.003 37.03,71.444 L54.977,71.444 C55.341,74.491 56.305,82.55 56.662,85.529 L35.336,85.529 L35.336,85.529 Z M90,68.101 C90,68.841 89.414,69.444 88.694,69.444 L3.306,69.444 C2.586,69.444 2,68.841 2,68.101 L2,62.606 L90,62.606 L90,68.101 L90,68.101 Z" id="Shape"></path>
                    </g>
                </g>
            </g>
        </g>
    </g>
</svg>