<?xml version="1.0" encoding="UTF-8" standalone="no"?>
<svg width="102px" height="94px" viewBox="0 0 102 94" version="1.1" xmlns="http://www.w3.org/2000/svg" xmlns:xlink="http://www.w3.org/1999/xlink">
    <!-- Generator: Sketch 39.1 (31720) - http://www.bohemiancoding.com/sketch -->
    <title>consulting icon</title>
    <desc>Created with Sketch.</desc>
    <defs></defs>
    <g id="Welcome" stroke="none" stroke-width="1" fill="none" fill-rule="evenodd">
        <g id="Aloha---Desktop" transform="translate(-709.000000, -986.000000)" fill="#323638">
            <g id="Our-Services" transform="translate(0.000000, 860.000000)">
                <g id="consulting" transform="translate(620.000000, 126.000000)">
                    <g id="consulting-icon" transform="translate(89.000000, 0.000000)">
                        <g id="Group">
                            <path d="M14.404,57.788 L17.034,63.476 C17.191,63.815 17.389,64.131 17.623,64.414 C21.228,68.792 22.414,69.22 24.107,69.096 C24.228,69.088 24.353,69.078 24.485,69.078 L25.367,69.078 C25.5,69.078 25.624,69.088 25.745,69.096 C25.891,69.107 26.033,69.113 26.173,69.113 C27.656,69.113 28.934,68.415 32.228,64.416 C32.461,64.134 32.66,63.817 32.818,63.477 L35.475,57.731 C37.152,57.72 38.814,56.149 39.557,53.736 C39.953,52.447 40.046,51.092 39.818,49.924 C39.655,49.085 39.335,48.416 38.894,47.944 C39.08,46.021 39.354,39.674 35.479,35.639 C32.931,32.986 29.154,31.906 24.268,32.434 C24.083,32.451 19.71,32.855 17.252,34.408 C17.093,34.509 16.916,34.614 16.726,34.727 C14.469,36.071 9.848,38.853 11.175,47.872 C10.655,48.348 10.284,49.073 10.107,50.007 C9.886,51.178 9.986,52.53 10.39,53.818 C11.134,56.183 12.758,57.731 14.404,57.788 L14.404,57.788 Z M17.751,36.443 C17.957,36.321 18.149,36.207 18.322,36.097 C20.369,34.803 24.406,34.428 24.465,34.422 C28.716,33.961 31.935,34.836 34.031,37.016 C37.132,40.24 37.067,45.537 36.924,47.477 C36.781,47.597 36.658,47.744 36.599,47.936 C36.437,48.464 36.733,49.024 37.261,49.186 C37.454,49.245 37.722,49.621 37.856,50.305 C38.02,51.145 37.943,52.181 37.646,53.147 C37.102,54.916 35.95,55.916 35.327,55.723 C35.307,55.714 35.254,55.692 35.234,55.685 C34.745,55.499 34.198,55.729 33.979,56.203 L31.005,62.636 C30.921,62.819 30.811,62.993 30.687,63.144 C27.341,67.207 26.636,67.155 25.888,67.103 C25.722,67.091 25.552,67.08 25.369,67.08 L24.487,67.08 C24.304,67.08 24.134,67.092 23.968,67.103 C23.221,67.156 22.515,67.207 19.168,63.143 C19.044,62.993 18.935,62.818 18.851,62.637 L15.916,56.289 C15.802,56.044 15.594,55.854 15.339,55.766 C15.124,55.69 14.892,55.691 14.681,55.764 C13.985,55.952 12.85,54.966 12.302,53.219 C12,52.254 11.917,51.219 12.076,50.378 C12.206,49.693 12.472,49.316 12.6,49.274 C12.625,49.269 12.69,49.254 12.714,49.248 C13.233,49.107 13.527,48.587 13.407,48.062 C13.368,47.892 13.274,47.753 13.162,47.632 C11.997,39.896 15.581,37.737 17.751,36.443 L17.751,36.443 Z" id="Shape"></path>
                            <path d="M62.446,22.512 C63.187,24.878 64.812,26.427 66.458,26.484 L69.088,32.172 C69.244,32.509 69.442,32.825 69.677,33.111 C72.972,37.111 74.25,37.809 75.733,37.809 C75.873,37.809 76.015,37.803 76.161,37.792 C76.282,37.784 76.406,37.774 76.539,37.774 L77.421,37.774 C77.554,37.774 77.678,37.784 77.799,37.792 C79.488,37.916 80.676,37.488 84.282,33.11 C84.516,32.827 84.714,32.511 84.872,32.171 L87.529,26.425 C89.206,26.414 90.868,24.843 91.611,22.43 C92.007,21.141 92.1,19.787 91.872,18.618 C91.709,17.779 91.389,17.109 90.948,16.638 C91.134,14.716 91.408,8.368 87.533,4.332 C84.985,1.68 81.209,0.598 76.322,1.128 C76.137,1.145 71.764,1.549 69.306,3.102 C69.147,3.203 68.971,3.308 68.781,3.42 C66.524,4.764 61.902,7.544 63.229,16.563 C61.94,17.741 61.763,20.337 62.446,22.512 L62.446,22.512 Z M69.806,5.14 C70.012,5.017 70.203,4.903 70.376,4.794 C72.423,3.5 76.46,3.125 76.52,3.119 C80.768,2.659 83.989,3.533 86.086,5.712 C89.187,8.936 89.122,14.234 88.979,16.174 C88.836,16.294 88.713,16.441 88.654,16.633 C88.492,17.161 88.788,17.721 89.316,17.883 C89.509,17.942 89.777,18.318 89.911,19.002 C90.075,19.841 89.998,20.877 89.701,21.843 C89.158,23.613 88.011,24.612 87.319,24.393 C86.821,24.189 86.257,24.414 86.034,24.899 L83.06,31.332 C82.974,31.518 82.867,31.688 82.741,31.841 C79.396,35.903 78.693,35.86 77.942,35.799 C77.776,35.788 77.606,35.777 77.423,35.777 L76.541,35.777 C76.359,35.777 76.188,35.789 76.022,35.799 C75.276,35.859 74.567,35.901 71.223,31.842 C71.098,31.69 70.988,31.514 70.905,31.333 L67.97,24.985 C67.856,24.74 67.648,24.55 67.393,24.462 C67.178,24.386 66.946,24.387 66.735,24.46 C66.041,24.648 64.903,23.662 64.356,21.914 C63.71,19.855 64.206,18.113 64.649,17.971 C64.667,17.968 64.72,17.957 64.738,17.952 C65.265,17.827 65.579,17.308 65.468,16.779 C65.431,16.599 65.333,16.453 65.215,16.326 C64.051,8.59 67.635,6.431 69.806,5.14 L69.806,5.14 Z" id="Shape"></path>
                            <path d="M101.876,50.684 C101.903,50.631 101.935,50.581 101.951,50.525 C101.968,50.467 101.969,50.407 101.976,50.346 C101.984,50.276 101.993,50.208 101.986,50.138 C101.984,50.122 101.991,50.107 101.988,50.091 C101.867,49.294 101.723,48.449 101.475,47.635 C100.173,43.866 96.525,43.022 95.92,42.906 L85.845,39.816 C85.432,39.691 84.986,39.842 84.737,40.193 L77.007,51.062 L69.354,40.196 C69.105,39.842 68.657,39.69 68.243,39.816 L58.168,42.906 C57.563,43.021 53.914,43.868 52.601,47.671 C52.383,48.389 52.187,49.271 52.063,50.091 C52.061,50.107 52.067,50.121 52.065,50.137 C52.058,50.207 52.068,50.275 52.075,50.345 C52.082,50.406 52.082,50.466 52.099,50.524 C52.116,50.58 52.148,50.63 52.174,50.683 C52.207,50.747 52.236,50.811 52.281,50.867 C52.291,50.879 52.293,50.894 52.304,50.906 C58.831,58.229 67.929,62.428 77.266,62.428 C86.393,62.428 95.086,58.337 101.742,50.907 C101.753,50.895 101.755,50.88 101.765,50.868 C101.814,50.812 101.843,50.748 101.876,50.684 L101.876,50.684 Z M77.269,60.428 C68.651,60.428 60.245,56.599 54.122,49.919 C54.228,49.337 54.364,48.755 54.505,48.288 C55.498,45.414 58.442,44.889 58.562,44.868 C58.608,44.861 58.654,44.85 58.699,44.837 L68.137,41.942 L76.186,53.371 C76.373,53.636 76.677,53.794 77.001,53.795 L77.003,53.795 C77.327,53.795 77.63,53.639 77.818,53.374 L85.948,41.941 L95.39,44.837 C95.435,44.851 95.481,44.861 95.527,44.868 C95.558,44.873 98.581,45.383 99.572,48.252 C99.728,48.768 99.835,49.345 99.93,49.919 C93.703,56.695 85.676,60.428 77.269,60.428 L77.269,60.428 Z" id="Shape"></path>
                            <path d="M78.804,67.645 C78.621,67.346 78.281,67.124 77.944,67.167 C77.593,67.169 77.27,67.355 77.091,67.656 L71.265,77.468 C70.983,77.944 71.14,78.557 71.614,78.839 C71.774,78.934 71.95,78.979 72.124,78.979 C72.465,78.979 72.798,78.804 72.985,78.49 L77,71.727 L77,77.055 C77,84.744 70.744,91 63.055,91 L45.333,91 C44.781,91 44.333,91.447 44.333,92 C44.333,92.553 44.781,93 45.333,93 L63.055,93 C71.847,93 79,85.847 79,77.055 L79,71.796 L83.105,78.502 C83.393,78.972 84.008,79.119 84.48,78.832 C84.951,78.544 85.099,77.929 84.811,77.457 L78.804,67.645 L78.804,67.645 Z" id="Shape"></path>
                            <path d="M24.091,27.49 C24.27,27.791 24.593,27.977 24.944,27.979 L24.951,27.979 C25.299,27.979 25.622,27.798 25.804,27.501 L31.812,17.689 C32.1,17.217 31.952,16.602 31.481,16.314 C31.012,16.028 30.396,16.174 30.106,16.644 L25.951,23.431 L25.951,16.819 C25.951,9.195 32.154,2.992 39.778,2.992 L60.5,2.992 C61.052,2.992 61.5,2.545 61.5,1.992 C61.5,1.439 61.052,0.992 60.5,0.992 L39.777,0.992 C31.05,0.992 23.95,8.092 23.95,16.819 L23.95,23.336 L19.984,16.656 C19.702,16.181 19.089,16.025 18.613,16.306 C18.138,16.588 17.982,17.202 18.264,17.677 L24.091,27.49 L24.091,27.49 Z" id="Shape"></path>
                            <path d="M49.691,82.211 C49.702,82.199 49.704,82.184 49.714,82.171 C49.759,82.115 49.789,82.052 49.822,81.988 C49.849,81.934 49.881,81.884 49.898,81.828 C49.915,81.771 49.916,81.711 49.923,81.65 C49.931,81.58 49.941,81.512 49.933,81.441 C49.931,81.425 49.938,81.41 49.935,81.393 C49.814,80.596 49.67,79.752 49.422,78.939 C48.12,75.17 44.472,74.326 43.867,74.21 L33.792,71.12 C33.379,70.994 32.933,71.145 32.684,71.497 L24.954,82.366 L17.301,71.5 C17.052,71.146 16.604,70.995 16.19,71.12 L6.115,74.21 C5.51,74.325 1.861,75.172 0.548,78.975 C0.33,79.692 0.134,80.574 0.01,81.393 C0.008,81.409 0.014,81.424 0.012,81.44 C0.005,81.51 0.015,81.578 0.022,81.649 C0.029,81.709 0.029,81.77 0.046,81.827 C0.063,81.884 0.095,81.934 0.122,81.988 C0.154,82.052 0.183,82.115 0.229,82.17 C0.239,82.182 0.241,82.197 0.252,82.209 C6.606,89.339 15.724,93.428 25.268,93.428 C34.672,93.428 43.117,89.549 49.691,82.211 L49.691,82.211 Z M25.269,91.428 C16.452,91.428 8.028,87.71 2.069,81.222 C2.175,80.64 2.311,80.059 2.452,79.592 C3.445,76.718 6.389,76.193 6.509,76.172 C6.555,76.165 6.601,76.154 6.646,76.141 L16.084,73.246 L24.133,84.675 C24.32,84.94 24.624,85.098 24.948,85.099 L24.95,85.099 C25.274,85.099 25.577,84.943 25.765,84.678 L33.895,73.245 L43.337,76.141 C43.382,76.155 43.428,76.165 43.474,76.172 C43.505,76.177 46.528,76.687 47.519,79.556 C47.675,80.071 47.782,80.648 47.877,81.222 C41.741,87.896 33.936,91.428 25.269,91.428 L25.269,91.428 Z" id="Shape"></path>
                        </g>
                    </g>
                </g>
            </g>
        </g>
    </g>
</svg>