<?xml version="1.0" encoding="UTF-8" standalone="no"?>
<svg width="60px" height="61px" viewBox="0 0 60 61" version="1.1" xmlns="http://www.w3.org/2000/svg" xmlns:xlink="http://www.w3.org/1999/xlink">
    <!-- Generator: Sketch 39.1 (31720) - http://www.bohemiancoding.com/sketch -->
    <title>deploy</title>
    <desc>Created with Sketch.</desc>
    <defs></defs>
    <g id="Welcome" stroke="none" stroke-width="1" fill="none" fill-rule="evenodd">
        <g id="Aloha---Desktop" transform="translate(-1012.000000, -1580.000000)" fill="#FFFFFF">
            <g id="Our-Process" transform="translate(0.000000, 1337.000000)">
                <g id="Deploy" transform="translate(973.655637, 207.000000)">
                    <g id="deploy" transform="translate(39.068244, 36.259957)">
                        <g id="Group">
                            <path d="M58.1011965,1.94743103 C58.0757177,1.81546452 58.0073596,1.69583133 57.9073084,1.60641477 C57.8439219,1.5459815 57.7681066,1.49973156 57.6854556,1.47013159 C57.1889279,1.2419652 55.3600406,0.616049271 52.805937,0.616049271 C48.7274498,0.616049271 42.6125156,2.18793075 36.6423761,9.67733855 C34.3617045,12.5386685 32.2649781,15.5288816 29.7500249,19.3867437 L29.0689306,19.0888941 C27.9596667,18.6011113 26.6453287,18.7898111 25.7193884,19.5668102 L15.0263322,28.5497829 C14.7995079,28.7409493 14.7404715,29.064699 14.8858876,29.3224653 C14.9983676,29.5210317 15.2084131,29.6375816 15.4277802,29.6375816 C15.4924095,29.6375816 15.5589032,29.6270983 15.6235326,29.6061316 L21.7297667,27.5939507 C22.1156787,27.4663008 22.5351483,27.4817175 22.9123602,27.635884 L24.1838191,28.1588167 C23.7363849,28.8741492 23.2796291,29.605515 22.8011231,30.3720307 C22.6488712,30.6156138 22.6855359,30.9301134 22.8899885,31.1323798 L25.0650159,33.290094 L22.4276398,35.9744408 C22.1877654,36.2186405 22.1927368,36.6083734 22.4388257,36.8464064 C22.5593843,36.9629563 22.7159863,37.0215395 22.8725883,37.0215395 C23.0341617,37.0215395 23.1963566,36.9592563 23.3175367,36.8353064 L25.9443484,34.1620596 L28.1715765,36.370957 C28.2915137,36.4899735 28.4506014,36.5516401 28.610932,36.5516401 C28.7240334,36.5516401 28.8371349,36.5214235 28.9378076,36.4597569 C29.7114959,35.9843074 30.4491409,35.531058 31.1675214,35.0882918 L31.6926351,36.3438237 C31.8486157,36.7169066 31.8635302,37.1331561 31.7348928,37.5167223 L29.7065244,43.5736151 C29.6133089,43.8541981 29.7326247,44.1612978 29.9923851,44.3062143 C30.0874649,44.3592475 30.1924877,44.3851475 30.2962675,44.3851475 C30.4739984,44.3851475 30.648622,44.3092976 30.7704235,44.1668478 L39.8247519,33.5589603 C40.6090047,32.6413614 40.7985428,31.3364963 40.307608,30.2363642 L40.0062113,29.5604984 C44.0175833,26.9846847 46.961949,24.9435205 49.8261494,22.7025565 C61.7310066,13.3915175 58.6406033,3.39104599 58.1011965,1.94743103 L58.1011965,1.94743103 Z M23.3890019,26.496902 C22.7352508,26.2286523 22.0075488,26.2027523 21.3382618,26.4235187 L18.2839019,27.4305342 L26.5235271,20.5096924 C27.0877914,20.0348596 27.8894444,19.9207764 28.56681,20.2173928 L29.0695521,20.4375425 C27.7999575,22.4040902 26.4153972,24.5957209 24.848756,27.0969179 L23.3890019,26.496902 L23.3890019,26.496902 Z M39.1716223,30.7358636 C39.4699117,31.4074128 39.354946,32.2022952 38.87644,32.7622279 L31.8995735,40.9367516 L32.9143791,37.9064552 C33.1362319,37.2416893 33.1101316,36.5189568 32.8404282,35.8720742 L32.2370134,34.4284593 C34.7873884,32.8547278 36.9984592,31.4783294 38.9497695,30.2369809 L39.1716223,30.7358636 L39.1716223,30.7358636 Z M49.0561897,21.7350076 C44.1872355,25.5435365 39.0746782,28.7797993 28.7010403,35.1536584 L26.8112522,33.278994 L35.011727,24.9336538 C35.2516014,24.6894541 35.2466299,24.2997213 35.0005411,24.0616882 C34.7550737,23.8248885 34.3610831,23.8285885 34.12183,24.0727882 L25.9325411,32.4070283 L24.1167039,30.6057471 C30.2297738,20.816792 33.6514027,15.4178818 37.6167884,10.4432376 C46.5462081,-0.759732435 55.6688945,2.02328094 57.0000112,2.52524701 C57.4822459,3.88622874 60.1513152,13.0566679 49.0561897,21.7350076 L49.0561897,21.7350076 Z" id="Shape"></path>
                            <path d="M46.7077815,8.63208979 C45.6059748,8.63208979 44.5650688,9.06190595 43.776466,9.84383836 C43.0027777,10.6115874 42.5690151,11.6266196 42.5553435,12.7008516 C42.5416719,13.7812504 42.9536842,14.7925825 43.7155652,15.5479983 C44.4637747,16.2910807 45.4649087,16.6999302 46.5350222,16.6999302 C47.6368289,16.6999302 48.6777349,16.2694974 49.4657163,15.487565 C50.240026,14.7204326 50.6737887,13.7054005 50.6874603,12.6305517 C50.7011319,11.550153 50.2891195,10.5388209 49.5272385,9.78340509 C48.7784076,9.04093931 47.777895,8.63208979 46.7077815,8.63208979 L46.7077815,8.63208979 Z M48.5876266,14.6155994 C48.0345482,15.1644321 47.3062248,15.4665984 46.5356436,15.4665984 C45.7973772,15.4665984 45.1088257,15.1860154 44.5948978,14.6760326 C44.0716483,14.1567999 43.7888947,13.4612007 43.7988377,12.7162683 C43.8081593,11.9651692 44.1126631,11.25477 44.6557985,10.715804 C45.2088769,10.167588 45.9378218,9.86542166 46.708403,9.86542166 C47.4466694,9.86542166 48.1352209,10.1460047 48.6491488,10.6553707 C49.1723983,11.1746034 49.4551519,11.8702026 49.4452089,12.6157517 C49.4358873,13.3662342 49.1313835,14.0766333 48.5876266,14.6155994 L48.5876266,14.6155994 Z" id="Shape"></path>
                            <path d="M25.2029748,36.3623237 L18.7363076,45.5228962 C18.7052357,45.5666794 18.6921856,45.6160127 18.6741639,45.6641127 C17.432534,46.1463454 16.4575003,47.1188276 16.0572952,48.3669595 C15.1145762,48.2855595 14.2464296,48.3977927 13.3944402,48.6648091 C13.0377357,47.4641605 12.3740417,46.3936285 11.4661231,45.5537294 C12.8419833,44.533764 13.6933512,42.8551993 13.6933512,41.0582348 C13.6933512,40.9688182 13.684651,40.8812516 13.680301,40.7930684 L22.8464879,34.1047097 C23.1224057,33.9030599 23.1820636,33.517027 22.9788539,33.2426107 C22.7750228,32.968811 22.3872464,32.9096111 22.1100858,33.1112608 L13.4578268,39.4246867 C12.7935112,37.1861893 10.8011861,35.5563413 8.45277796,35.5563413 C5.56309868,35.5563413 3.21158333,38.024855 3.21158333,41.0588514 C3.21158333,42.2588833 3.57388076,43.3941653 4.24627495,44.3370476 C1.80837993,45.4242296 0.17275932,47.9235766 0.17275932,50.7090567 C0.17275932,54.5410188 3.20536897,57.6588818 6.93274452,57.6588818 C7.85744189,57.6588818 8.77530345,57.4615487 9.62169984,57.0841491 C10.7235066,59.1111301 13.0035567,60.4332618 15.502974,60.4332618 C19.1302982,60.4332618 22.0808783,57.7217817 22.0808783,54.3880857 C22.0808783,54.142036 22.0634781,53.8929029 22.0286776,53.6431532 C23.7997714,53.0240206 24.991065,51.4441225 24.991065,49.623108 C24.991065,47.2538774 22.9415677,45.3267964 20.4222645,45.3267964 C20.4110787,45.3267964 20.4011357,45.329263 20.3899498,45.329263 L26.2208876,37.0684062 C26.4172615,36.7896731 26.3495249,36.4054903 26.0680143,36.2093905 C25.7883679,36.0157574 25.3993487,36.082974 25.2029748,36.3623237 L25.2029748,36.3623237 Z M23.7481922,49.6237246 C23.7481922,51.0519229 22.6929931,52.2772382 21.1816598,52.6022211 C21.0176006,52.6379877 20.8752917,52.737271 20.7864263,52.8778708 C20.6975609,53.0184706 20.6695962,53.1892871 20.7093681,53.3508536 C20.7951264,53.6986531 20.8380055,54.0483027 20.8380055,54.3887023 C20.8380055,57.0422159 18.4442325,59.2005466 15.502974,59.2005466 C13.2651815,59.2005466 11.2504846,57.9215815 10.4898465,56.0179337 C10.4233528,55.8514339 10.2866368,55.7219341 10.1157418,55.6633508 C10.0498695,55.6405342 9.98026864,55.6288175 9.91191064,55.6288175 C9.8037807,55.6288175 9.6962722,55.6565675 9.60119243,55.7114508 C8.78586787,56.1795002 7.86303481,56.4261666 6.93274452,56.4261666 C3.89019189,56.4261666 1.41563213,53.8620696 1.41563213,50.7096733 C1.41563213,48.1511264 3.07983882,45.8873457 5.46180455,45.2053132 C5.67309293,45.1448799 5.8365307,44.9783801 5.89059567,44.7674804 C5.94590351,44.555964 5.8843813,44.3321142 5.72964364,44.1773311 C4.90686184,43.3583987 4.4538347,42.2508667 4.4538347,41.0588514 C4.4538347,38.7050375 6.24730016,36.7896731 8.45215652,36.7896731 C10.6570129,36.7896731 12.4504783,38.7044209 12.4504783,41.0588514 C12.4504783,42.7145995 11.5369668,44.234681 10.123199,44.9321302 C9.92806798,45.0283301 9.79756634,45.2201132 9.78016612,45.4353296 C9.76338734,45.6517793 9.86157429,45.8602124 10.0393051,45.9866289 C11.2455132,46.8394779 12.0645663,48.1233764 12.3448342,49.600908 C12.3796346,49.7859078 12.4977075,49.9443909 12.6648739,50.0319575 C12.8332832,50.1201407 13.0302785,50.126924 13.2042807,50.0523075 C13.933847,49.7359578 14.7069139,49.5762414 15.502974,49.5762414 C15.7950491,49.5762414 16.09831,49.6021413 16.4313999,49.6545579 C16.7694613,49.7137579 17.0857725,49.4818915 17.1423232,49.1482752 C17.3958692,47.6485436 18.7754581,46.5607449 20.4222645,46.5607449 C22.2561234,46.5607449 23.7481922,47.9346766 23.7481922,49.6237246 L23.7481922,49.6237246 Z" id="Shape"></path>
                        </g>
                    </g>
                </g>
            </g>
        </g>
    </g>
</svg>