<?xml version="1.0" encoding="UTF-8" standalone="no"?>
<svg width="40px" height="52px" viewBox="0 0 40 52" version="1.1" xmlns="http://www.w3.org/2000/svg" xmlns:xlink="http://www.w3.org/1999/xlink">
    <!-- Generator: Sketch 39.1 (31720) - http://www.bohemiancoding.com/sketch -->
    <title>des</title>
    <desc>Created with Sketch.</desc>
    <defs></defs>
    <g id="Welcome" stroke="none" stroke-width="1" fill="none" fill-rule="evenodd">
        <g id="Aloha---Desktop" transform="translate(-700.000000, -1586.000000)" fill="#FFFFFF">
            <g id="Our-Process" transform="translate(0.000000, 1337.000000)">
                <g id="Design" transform="translate(653.327819, 207.000000)">
                    <g id="des" transform="translate(46.881893, 42.303283)">
                        <g id="Group">
                            <path d="M19.5341222,50.8011367 C8.76268167,50.8011367 0,42.0503361 0,31.2935002 C0,22.8829995 5.35886087,15.5031522 13.3770754,12.8078471 L13.3770754,3.11580305 L9.76706112,3.11580305 C9.4669953,3.11580305 9.22444661,2.87358323 9.22444661,2.57392426 C9.22444661,2.27426529 9.4669953,2.03204547 9.76706112,2.03204547 L13.9196899,2.03204547 C14.2197558,2.03204547 14.4623044,2.27426529 14.4623044,2.57392426 L14.4623044,13.2007092 C14.4623044,13.4375103 14.3087445,13.6461336 14.0830169,13.7176616 C6.43052452,16.1246872 1.08522901,23.3522665 1.08522901,31.2935002 C1.08522901,41.4526438 9.36118547,49.7173791 19.5341222,49.7173791 C29.707059,49.7173791 37.9830155,41.4526438 37.9830155,31.2935002 C37.9830155,23.3631041 32.6426035,16.1382342 24.9955373,13.7236223 C24.7698096,13.6526362 24.6167923,13.4434709 24.6167923,13.2072118 L24.6167923,2.57392426 C24.6167923,2.27426529 24.859341,2.03204547 25.1594068,2.03204547 L29.3011834,2.03204547 C29.6012492,2.03204547 29.8437979,2.27426529 29.8437979,2.57392426 C29.8437979,2.87358323 29.6012492,3.11580305 29.3011834,3.11580305 L25.7020213,3.11580305 L25.7020213,12.8143497 C33.7137245,15.5183248 39.0682445,22.8943789 39.0682445,31.2935002 C39.0682445,42.0503361 30.3055628,50.8011367 19.5341222,50.8011367 L19.5341222,50.8011367 Z" id="Shape"></path>
                            <g transform="translate(7.053989, 0.000000)" id="Shape">
                                <path d="M22.2471948,36.4413487 C19.7039606,36.4413487 17.6349715,34.3751649 17.6349715,31.835379 C17.6349715,29.2955931 19.7039606,27.2294093 22.2471948,27.2294093 C24.790429,27.2294093 26.8594181,29.2955931 26.8594181,31.835379 C26.8594181,34.3751649 24.790429,36.4413487 22.2471948,36.4413487 L22.2471948,36.4413487 Z M22.2471948,28.3131669 C20.3024644,28.3131669 18.7202005,29.8932854 18.7202005,31.835379 C18.7202005,33.7774726 20.3024644,35.3575912 22.2471948,35.3575912 C24.1919252,35.3575912 25.7741891,33.7774726 25.7741891,31.835379 C25.7741891,29.8932854 24.1919252,28.3131669 22.2471948,28.3131669 L22.2471948,28.3131669 Z"></path>
                                <path d="M10.3096756,23.9781365 C8.81368743,23.9781365 7.59660309,22.7627024 7.59660309,21.2687426 C7.59660309,19.7747827 8.81368743,18.5593486 10.3096756,18.5593486 C11.8056638,18.5593486 13.0227482,19.7747827 13.0227482,21.2687426 C13.0227482,22.7627024 11.8056638,23.9781365 10.3096756,23.9781365 L10.3096756,23.9781365 Z M10.3096756,19.6431062 C9.41219123,19.6431062 8.68183211,20.3724751 8.68183211,21.2687426 C8.68183211,22.1650101 9.41219123,22.8943789 10.3096756,22.8943789 C11.20716,22.8943789 11.9375191,22.1650101 11.9375191,21.2687426 C11.9375191,20.3724751 11.20716,19.6431062 10.3096756,19.6431062 L10.3096756,19.6431062 Z"></path>
                                <path d="M3.25568704,36.9832275 C1.46017564,36.9832275 0,35.5250317 0,33.7319548 C0,31.9388779 1.46017564,30.480682 3.25568704,30.480682 C5.05119844,30.480682 6.51137408,31.9388779 6.51137408,33.7319548 C6.51137408,35.5250317 5.05119844,36.9832275 3.25568704,36.9832275 L3.25568704,36.9832275 Z M3.25568704,31.5644396 C2.05867944,31.5644396 1.08522901,32.5365702 1.08522901,33.7319548 C1.08522901,34.9273394 2.05867944,35.8994699 3.25568704,35.8994699 C4.45269464,35.8994699 5.42614507,34.9273394 5.42614507,33.7319548 C5.42614507,32.5365702 4.45269464,31.5644396 3.25568704,31.5644396 L3.25568704,31.5644396 Z"></path>
                                <path d="M13.5653627,6.6380152 C11.7698513,6.6380152 10.3096756,5.17981937 10.3096756,3.38674245 C10.3096756,1.59366553 11.7698513,0.135469698 13.5653627,0.135469698 C15.3608741,0.135469698 16.8210497,1.59366553 16.8210497,3.38674245 C16.8210497,5.17981937 15.3608741,6.6380152 13.5653627,6.6380152 L13.5653627,6.6380152 Z M13.5653627,1.21922728 C12.3683551,1.21922728 11.3949046,2.19135783 11.3949046,3.38674245 C11.3949046,4.58212706 12.3683551,5.55425761 13.5653627,5.55425761 C14.7623703,5.55425761 15.7358207,4.58212706 15.7358207,3.38674245 C15.7358207,2.19135783 14.7623703,1.21922728 13.5653627,1.21922728 L13.5653627,1.21922728 Z"></path>
                            </g>
                            <g transform="translate(0.000000, 31.970849)" id="Shape">
                                <path d="M31.7098492,8.77193388 C27.8268997,8.77193388 23.8435667,6.99673896 19.9508502,5.26164307 C17.5253633,4.18059488 15.2349875,3.15969523 12.9815095,2.54953971 C12.6922959,2.47096729 12.5213724,2.17401771 12.6000515,1.88465444 C12.6781879,1.59529116 12.9744555,1.42243183 13.2658395,1.50371365 C15.6007097,2.13554432 18.0370488,3.22146942 20.393081,4.27108864 C25.847442,6.70195689 31.4873772,9.21627449 36.5016779,6.49658483 C36.7637607,6.35461259 37.0947555,6.45160889 37.2374631,6.71387823 C37.3807134,6.97668944 37.2830428,7.30615175 37.0198747,7.44866587 C35.2840509,8.39099309 33.507531,8.77193388 31.7098492,8.77193388 L31.7098492,8.77193388 Z"></path>
                                <path d="M1.0174022,2.79338517 C0.843222943,2.79338517 0.671756759,2.70993584 0.56703216,2.5549585 C0.399364277,2.30731989 0.465020632,1.97027129 0.713538076,1.80228886 C3.25134612,0.091035637 6.42509837,0.286653881 7.67473958,0.451385033 C7.97154972,0.490400306 8.18099892,0.76242346 8.14138806,1.05937304 C8.10231981,1.35578074 7.83806655,1.56386219 7.53257458,1.5253888 C5.19010776,1.2186854 2.86771767,1.65652347 1.32072371,2.7007239 C1.22793663,2.76358184 1.12158419,2.79338517 1.0174022,2.79338517 L1.0174022,2.79338517 Z"></path>
                            </g>
                        </g>
                    </g>
                </g>
            </g>
        </g>
    </g>
</svg>