<?xml version="1.0" encoding="UTF-8" standalone="no"?>
<svg width="92px" height="78px" viewBox="0 0 92 78" version="1.1" xmlns="http://www.w3.org/2000/svg" xmlns:xlink="http://www.w3.org/1999/xlink">
    <!-- Generator: Sketch 39.1 (31720) - http://www.bohemiancoding.com/sketch -->
    <title>dev icon</title>
    <desc>Created with Sketch.</desc>
    <defs></defs>
    <g id="Welcome" stroke="none" stroke-width="1" fill="none" fill-rule="evenodd">
        <g id="Aloha---Desktop" transform="translate(-472.000000, -987.000000)">
            <g id="Our-Services" transform="translate(0.000000, 860.000000)">
                <g id="developement" transform="translate(398.000000, 127.000000)">
                    <g id="dev-icon" transform="translate(74.000000, 0.000000)">
                        <g id="Group" transform="translate(6.000000, 6.000000)" stroke-width="2" stroke="#323638">
                            <circle id="Oval" cx="0.553" cy="1" r="0.5"></circle>
                            <circle id="Oval" cx="5.953" cy="1" r="0.5"></circle>
                            <circle id="Oval" cx="11.353" cy="1" r="0.5"></circle>
                        </g>
                        <g id="Group" fill="#4A4A4A">
                            <path d="M86,0.5 L6,0.5 C2.691,0.5 0,3.191 0,6.5 L0,71.5 C0,74.809 2.691,77.5 6,77.5 L86,77.5 C89.309,77.5 92,74.809 92,71.5 L92,6.5 C92,3.191 89.309,0.5 86,0.5 L86,0.5 Z M6,2.5 L86,2.5 C88.206,2.5 90,4.294 90,6.5 L90,12.155 L2,12.155 L2,6.5 C2,4.294 3.794,2.5 6,2.5 L6,2.5 Z M86,75.5 L6,75.5 C3.794,75.5 2,73.706 2,71.5 L2,14.155 L90,14.155 L90,71.5 C90,73.706 88.206,75.5 86,75.5 L86,75.5 Z" id="Shape"></path>
                            <path d="M59.339,32.638 C58.906,32.296 58.277,32.369 57.934,32.8 C57.591,33.233 57.663,33.862 58.096,34.205 L71.076,44.5 L58.096,54.794 C57.663,55.137 57.591,55.766 57.934,56.199 C58.132,56.448 58.424,56.577 58.718,56.577 C58.936,56.577 59.155,56.506 59.339,56.361 L73.307,45.283 C73.546,45.093 73.685,44.804 73.685,44.499 C73.685,44.194 73.545,43.905 73.307,43.715 L59.339,32.638 L59.339,32.638 Z" id="Shape"></path>
                            <path d="M34.066,32.8 C33.722,32.368 33.094,32.296 32.661,32.638 L18.693,43.716 C18.454,43.906 18.315,44.195 18.315,44.5 C18.315,44.805 18.455,45.094 18.693,45.284 L32.661,56.362 C32.845,56.508 33.064,56.578 33.282,56.578 C33.576,56.578 33.868,56.448 34.066,56.2 C34.409,55.767 34.337,55.138 33.904,54.795 L20.924,44.5 L33.904,34.206 C34.337,33.862 34.409,33.233 34.066,32.8 L34.066,32.8 Z" id="Shape"></path>
                            <path d="M55.086,23.586 C54.58,23.361 53.99,23.59 53.767,24.095 L36.045,64.095 C35.821,64.6 36.049,65.191 36.554,65.414 C36.686,65.473 36.824,65.5 36.959,65.5 C37.342,65.5 37.709,65.278 37.874,64.905 L55.596,24.905 C55.819,24.4 55.591,23.81 55.086,23.586 L55.086,23.586 Z" id="Shape"></path>
                        </g>
                    </g>
                </g>
            </g>
        </g>
    </g>
</svg>