<?xml version="1.0" encoding="UTF-8" standalone="no"?>
<svg width="32px" height="32px" viewBox="0 0 32 32" version="1.1" xmlns="http://www.w3.org/2000/svg" xmlns:xlink="http://www.w3.org/1999/xlink">
    <!-- Generator: Sketch 39.1 (31720) - http://www.bohemiancoding.com/sketch -->
    <title>dribbble</title>
    <desc>Created with Sketch.</desc>
    <defs></defs>
    <g id="Welcome" stroke="none" stroke-width="1" fill="none" fill-rule="evenodd">
        <g id="Aloha---Desktop" transform="translate(-684.000000, -2494.000000)">
            <g id="About-Us" transform="translate(185.000000, 1887.000000)">
                <g id="About-Us-1" transform="translate(318.000000, 85.000000)">
                    <g id="Group-2" transform="translate(61.000000, 521.000000)">
                        <g id="dribbble" transform="translate(120.000000, 1.000000)">
                            <g id="Group">
                                <path d="M16,31.625 C7.385,31.625 0.375,24.615 0.375,16 C0.375,7.384 7.385,0.375 16,0.375 C24.615,0.375 31.625,7.384 31.625,16 C31.625,24.615 24.615,31.625 16,31.625 L16,31.625 Z" id="Shape" fill="#FFFFFF"></path>
                                <path d="M16,0.75 C24.409,0.75 31.25,7.591 31.25,16 C31.25,24.409 24.409,31.25 16,31.25 C7.591,31.25 0.75,24.409 0.75,16 C0.75,7.591 7.591,0.75 16,0.75 L16,0.75 Z M16,0 C7.163,0 0,7.163 0,16 C0,24.836 7.163,32 16,32 C24.837,32 32,24.836 32,16 C32,7.163 24.837,0 16,0 L16,0 L16,0 Z" id="Shape" fill="#E5E5E5"></path>
                            </g>
                            <path d="M22.644,10.534 C22.628,10.557 21.248,12.551 17.851,13.938 C18.051,14.348 18.244,14.766 18.423,15.186 C18.487,15.337 18.549,15.484 18.609,15.632 C21.565,15.26 24.477,15.885 24.601,15.911 C24.581,13.872 23.851,12 22.644,10.534 L22.644,10.534 Z M19.133,16.99 C20.261,20.091 20.72,22.617 20.808,23.136 C22.74,21.832 24.112,19.763 24.495,17.365 C24.317,17.307 21.91,16.545 19.133,16.99 L19.133,16.99 Z M19.359,23.922 C19.232,23.17 18.732,20.535 17.522,17.389 C17.503,17.396 17.484,17.401 17.464,17.408 C12.388,19.177 10.73,22.743 10.712,22.783 C12.173,23.919 14.005,24.605 16,24.605 C17.191,24.604 18.326,24.361 19.359,23.922 L19.359,23.922 Z M17.189,12.656 C20.435,11.439 21.661,9.574 21.682,9.542 C20.167,8.207 18.178,7.397 16,7.397 C15.301,7.397 14.622,7.482 13.973,7.638 C14.101,7.811 15.717,9.955 17.189,12.656 L17.189,12.656 Z M16.934,15.963 C16.718,15.474 16.482,14.984 16.236,14.501 C11.806,15.827 7.555,15.732 7.403,15.726 C7.401,15.818 7.396,15.907 7.396,16 C7.396,18.21 8.23,20.226 9.6,21.748 C9.597,21.744 11.952,17.567 16.595,16.065 C16.707,16.029 16.821,15.995 16.934,15.963 L16.934,15.963 Z M25.869,13.972 C26.005,14.635 26.075,15.317 26.075,16.001 C26.075,16.683 26.006,17.365 25.869,18.028 C25.736,18.677 25.539,19.313 25.282,19.922 C25.03,20.519 24.718,21.096 24.353,21.633 C23.994,22.167 23.579,22.667 23.124,23.124 C22.668,23.578 22.166,23.992 21.633,24.354 C21.094,24.717 20.518,25.028 19.921,25.282 C19.312,25.539 18.676,25.735 18.028,25.868 C17.364,26.005 16.681,26.075 15.999,26.075 C15.316,26.075 14.633,26.006 13.97,25.868 C13.322,25.735 12.685,25.538 12.077,25.282 C11.48,25.028 10.903,24.716 10.365,24.354 C9.832,23.992 9.331,23.578 8.876,23.124 C8.42,22.667 8.006,22.167 7.646,21.633 C7.283,21.096 6.97,20.519 6.717,19.922 C6.459,19.313 6.262,18.677 6.128,18.028 C5.994,17.364 5.925,16.682 5.925,16 C5.925,15.317 5.994,14.634 6.129,13.971 C6.262,13.322 6.459,12.685 6.717,12.078 C6.97,11.479 7.283,10.903 7.646,10.366 C8.006,9.832 8.42,9.332 8.876,8.875 C9.331,8.42 9.833,8.008 10.365,7.647 C10.904,7.282 11.48,6.97 12.077,6.716 C12.685,6.458 13.322,6.261 13.97,6.129 C14.634,5.993 15.317,5.925 16,5.925 C16.682,5.925 17.365,5.994 18.029,6.13 C18.676,6.262 19.313,6.459 19.922,6.717 C20.519,6.97 21.095,7.283 21.634,7.648 C22.167,8.009 22.669,8.422 23.125,8.876 C23.58,9.333 23.995,9.833 24.354,10.367 C24.719,10.904 25.031,11.481 25.283,12.079 C25.54,12.686 25.737,13.323 25.869,13.972 L25.869,13.972 Z M15.524,13.176 C14.035,10.53 12.444,8.371 12.329,8.218 C9.929,9.351 8.139,11.562 7.58,14.227 C7.807,14.228 11.393,14.273 15.524,13.176 L15.524,13.176 Z" id="Shape" fill="#333333"></path>
                        </g>
                    </g>
                </g>
            </g>
        </g>
    </g>
</svg>