<?xml version="1.0" encoding="UTF-8" standalone="no"?>
<svg width="32px" height="32px" viewBox="0 0 32 32" version="1.1" xmlns="http://www.w3.org/2000/svg" xmlns:xlink="http://www.w3.org/1999/xlink">
    <!-- Generator: Sketch 39.1 (31720) - http://www.bohemiancoding.com/sketch -->
    <title>facebook</title>
    <desc>Created with Sketch.</desc>
    <defs></defs>
    <g id="Welcome" stroke="none" stroke-width="1" fill="none" fill-rule="evenodd">
        <g id="Aloha---Desktop" transform="translate(-322.000000, -3323.000000)">
            <g id="Footer" transform="translate(0.000000, 3175.000000)">
                <g id="facebook" transform="translate(322.000000, 148.000000)">
                    <g id="Group">
                        <path d="M16,31.625 C7.384,31.625 0.375,24.615 0.375,16 C0.375,7.384 7.384,0.375 16,0.375 C24.615,0.375 31.625,7.384 31.625,16 C31.625,24.615 24.615,31.625 16,31.625 L16,31.625 Z" id="Shape" fill="#FFFFFF"></path>
                        <path d="M16,0.75 C24.409,0.75 31.25,7.591 31.25,16 C31.25,24.409 24.409,31.25 16,31.25 C7.591,31.25 0.75,24.409 0.75,16 C0.75,7.591 7.591,0.75 16,0.75 L16,0.75 Z M16,0 C7.163,0 0,7.163 0,16 C0,24.836 7.163,32 16,32 C24.837,32 32,24.836 32,16 C32,7.163 24.837,0 16,0 L16,0 L16,0 Z" id="Shape" fill="#E5E5E5"></path>
                    </g>
                    <path d="M13.69,24.903 L17.369,24.903 L17.369,15.999 L19.823,15.999 L20.148,12.931 L17.369,12.931 L17.373,11.395 C17.373,10.595 17.449,10.166 18.597,10.166 L20.131,10.166 L20.131,7.097 L17.676,7.097 C14.727,7.097 13.69,8.586 13.69,11.089 L13.69,12.931 L11.852,12.931 L11.852,16 L13.69,16 L13.69,24.903 L13.69,24.903 Z" id="Shape" fill="#333333"></path>
                </g>
            </g>
        </g>
    </g>
</svg>