<?xml version="1.0" encoding="UTF-8" standalone="no"?>
<svg width="32px" height="32px" viewBox="0 0 32 32" version="1.1" xmlns="http://www.w3.org/2000/svg" xmlns:xlink="http://www.w3.org/1999/xlink">
    <!-- Generator: Sketch 39.1 (31720) - http://www.bohemiancoding.com/sketch -->
    <title>github</title>
    <desc>Created with Sketch.</desc>
    <defs></defs>
    <g id="Welcome" stroke="none" stroke-width="1" fill="none" fill-rule="evenodd">
        <g id="Aloha---Desktop" transform="translate(-1005.000000, -2494.000000)">
            <g id="About-Us" transform="translate(185.000000, 1887.000000)">
                <g id="About-Us-1" transform="translate(636.000000, 85.000000)">
                    <g id="Group-2" transform="translate(63.000000, 521.000000)">
                        <g id="github" transform="translate(121.000000, 1.000000)">
                            <g id="Group">
                                <path d="M16.0005,31.6255 C7.3855,31.6255 0.3755,24.6155 0.3755,16.0005 C0.3755,7.3855 7.3855,0.3755 16.0005,0.3755 C24.6155,0.3755 31.6255,7.3855 31.6255,16.0005 C31.6255,24.6155 24.6155,31.6255 16.0005,31.6255 L16.0005,31.6255 Z" id="Shape" fill="#FFFFFF"></path>
                                <path d="M16,0.75 C24.409,0.75 31.25,7.591 31.25,16 C31.25,24.409 24.409,31.25 16,31.25 C7.591,31.25 0.75,24.409 0.75,16 C0.75,7.591 7.591,0.75 16,0.75 L16,0.75 Z M16,0 C7.1635,0 0,7.1635 0,16 C0,24.8365 7.1635,32 16,32 C24.8365,32 32,24.8365 32,16 C32,7.1635 24.8365,0 16,0 L16,0 L16,0 Z" id="Shape" fill="#E5E5E5"></path>
                            </g>
                            <g id="Outline_Filled_5_" transform="translate(8.000000, 6.500000)" fill="#333333">
                                <path d="M11.296,18.583 L8.876,18.583 L6.454,18.583 C6.454,18.583 6.461,17.146 6.454,16.161 C3.1395,16.875 2.2145,14.3445 2.2145,14.3445 C1.6095,13.133 1.003,12.528 1.003,12.528 C-0.2085,11.809 1.003,11.923 1.003,11.923 C2.2145,11.923 2.8195,13.1345 2.8195,13.1345 C3.8825,14.939 5.7735,14.6485 6.4525,14.346 C6.4525,13.741 6.7175,12.825 7.0575,12.5295 C4.4125,12.232 2.211,10.713 2.211,7.685 C2.211,4.657 2.819,4.052 3.4245,3.4455 C3.3025,3.147 2.795,2.043 3.443,0.4175 C3.443,0.4175 4.633,0.4175 5.8445,2.234 C6.4445,1.634 8.2665,1.629 8.8725,1.629 C9.4765,1.629 11.2995,1.634 11.8995,2.234 C13.111,0.4175 14.304,0.4175 14.304,0.4175 C14.952,2.043 14.445,3.147 14.3225,3.4455 C14.9275,4.0505 15.534,4.657 15.534,7.685 C15.534,10.713 13.3355,12.231 10.6895,12.5295 C11.0305,12.825 11.2945,13.867 11.2945,14.346 L11.296,18.583 L11.296,18.583 L11.296,18.583 Z" id="Cat_1_"></path>
                            </g>
                        </g>
                    </g>
                </g>
            </g>
        </g>
    </g>
</svg>