<?xml version="1.0" encoding="UTF-8" standalone="no"?>
<svg width="32px" height="32px" viewBox="0 0 32 32" version="1.1" xmlns="http://www.w3.org/2000/svg" xmlns:xlink="http://www.w3.org/1999/xlink">
    <!-- Generator: Sketch 39.1 (31720) - http://www.bohemiancoding.com/sketch -->
    <title>google</title>
    <desc>Created with Sketch.</desc>
    <defs></defs>
    <g id="Welcome" stroke="none" stroke-width="1" fill="none" fill-rule="evenodd">
        <g id="Aloha---Desktop" transform="translate(-644.000000, -2494.000000)">
            <g id="About-Us" transform="translate(185.000000, 1887.000000)">
                <g id="About-Us-1" transform="translate(318.000000, 85.000000)">
                    <g id="Group-2" transform="translate(61.000000, 521.000000)">
                        <g id="google" transform="translate(80.000000, 1.000000)">
                            <g id="Group">
                                <g id="Shape">
                                    <path d="M16,31.625 C7.385,31.625 0.375,24.615 0.375,16 C0.375,7.384 7.385,0.375 16,0.375 C24.615,0.375 31.625,7.384 31.625,16 C31.625,24.615 24.615,31.625 16,31.625 L16,31.625 Z" fill="#FFFFFF"></path>
                                    <path d="M16,0.75 C24.409,0.75 31.25,7.591 31.25,16 C31.25,24.409 24.409,31.25 16,31.25 C7.591,31.25 0.75,24.409 0.75,16 C0.75,7.591 7.591,0.75 16,0.75 L16,0.75 Z M16,0 C7.163,0 0,7.163 0,16 C0,24.836 7.163,32 16,32 C24.837,32 32,24.836 32,16 C32,7.163 24.837,0 16,0 L16,0 L16,0 Z" fill="#E5E5E5"></path>
                                </g>
                                <g transform="translate(4.000000, 8.000000)" id="Shape" fill="#333333">
                                    <path d="M8.202,15.565 C3.955,15.565 0.5,12.172 0.5,8.001 C0.5,3.83 3.955,0.436 8.202,0.436 C10.059,0.436 11.854,1.095 13.254,2.291 L11.295,4.502 C10.438,3.77 9.339,3.366 8.201,3.366 C5.599,3.366 3.482,5.445 3.482,8 C3.482,10.555 5.599,12.634 8.201,12.634 C10.402,12.634 11.843,11.579 12.311,9.687 L8.237,9.687 L8.237,6.757 L15.46,6.757 L15.46,8.222 C15.461,12.613 12.544,15.565 8.202,15.565 L8.202,15.565 Z"></path>
                                    <polygon points="23.501 6.758 21.267 6.758 21.267 4.525 19.481 4.525 19.481 6.758 17.248 6.758 17.248 8.544 19.481 8.544 19.481 10.777 21.267 10.777 21.267 8.544 23.501 8.544"></polygon>
                                </g>
                            </g>
                        </g>
                    </g>
                </g>
            </g>
        </g>
    </g>
</svg>