<?xml version="1.0" encoding="UTF-8" standalone="no"?>
<svg width="43px" height="31px" viewBox="0 0 43 31" version="1.1" xmlns="http://www.w3.org/2000/svg" xmlns:xlink="http://www.w3.org/1999/xlink">
    <!-- Generator: Sketch 39.1 (31720) - http://www.bohemiancoding.com/sketch -->
    <title>hamburger</title>
    <desc>Created with Sketch.</desc>
    <defs></defs>
    <g id="Welcome" stroke="none" stroke-width="1" fill="none" fill-rule="evenodd">
        <g id="Aloha---Desktop" transform="translate(-1059.000000, -24.000000)" fill="#FFFFFF">
            <g id="Header" transform="translate(0.000000, -190.000000)">
                <g id="hamburger" transform="translate(1059.000000, 214.000000)">
                    <path d="M3.07142857,6.2 L39.9285714,6.2 C41.624,6.2 43,4.8112 43,3.1 C43,1.3888 41.624,0 39.9285714,0 L3.07142857,0 C1.376,0 0,1.3888 0,3.1 C0,4.8112 1.376,6.2 3.07142857,6.2 L3.07142857,6.2 Z M39.9285714,12.4 L3.07142857,12.4 C1.376,12.4 0,13.7888 0,15.5 C0,17.2112 1.376,18.6 3.07142857,18.6 L39.9285714,18.6 C41.624,18.6 43,17.2112 43,15.5 C43,13.7888 41.624,12.4 39.9285714,12.4 L39.9285714,12.4 Z M39.9285714,24.8 L3.07142857,24.8 C1.376,24.8 0,26.1888 0,27.9 C0,29.6112 1.376,31 3.07142857,31 L39.9285714,31 C41.624,31 43,29.6112 43,27.9 C43,26.1888 41.624,24.8 39.9285714,24.8 L39.9285714,24.8 Z" id="Shape"></path>
                </g>
            </g>
        </g>
    </g>
</svg>