<?xml version="1.0" encoding="UTF-8" standalone="no"?>
<svg width="34px" height="50px" viewBox="0 0 34 50" version="1.1" xmlns="http://www.w3.org/2000/svg" xmlns:xlink="http://www.w3.org/1999/xlink">
    <!-- Generator: Sketch 39.1 (31720) - http://www.bohemiancoding.com/sketch -->
    <title>ideation</title>
    <desc>Created with Sketch.</desc>
    <defs></defs>
    <g id="Welcome" stroke="none" stroke-width="1" fill="none" fill-rule="evenodd">
        <g id="Aloha---Desktop" transform="translate(-223.000000, -1587.000000)" fill="#FFFFFF">
            <g id="Our-Process" transform="translate(0.000000, 1337.000000)">
                <g id="Ideation" transform="translate(172.000000, 207.000000)">
                    <g id="ideation" transform="translate(51.222809, 43.166616)">
                        <path d="M32.990962,16.5816108 C32.990962,7.43872457 25.5908764,0 16.495481,0 C7.40008562,0 0,7.43872457 0,16.5816108 C0,22.3081504 4.11109956,27.995108 7.41445266,32.5652139 L7.90878497,33.2504088 L7.90878497,38.5121284 C7.90878497,40.2820816 9.34069915,41.7214724 11.1014587,41.7214724 L21.7437045,41.7214724 C23.5044641,41.7214724 24.9363783,40.2820816 24.9363783,38.5121284 L24.9363783,33.3654103 L25.4934998,32.5994469 C28.6574395,28.2582742 32.990962,22.3134993 32.990962,16.5816108 L32.990962,16.5816108 Z M1.06422458,16.5816108 C1.06422458,8.02817409 7.98647337,1.06978134 16.495481,1.06978134 C25.0044886,1.06978134 31.9267374,8.02817409 31.9267374,16.5816108 C31.9267374,21.9636808 27.7124081,27.745314 24.6352027,31.9666712 L24.1541732,32.628331 L8.77453167,32.628331 L8.27541034,31.9361824 C5.06251633,27.4917758 1.06422458,21.9604714 1.06422458,16.5816108 L1.06422458,16.5816108 Z M23.8721537,38.5121284 C23.8721537,39.6920972 22.9175442,40.651691 21.7437045,40.651691 L11.1014587,40.651691 C9.927619,40.651691 8.97300955,39.6920972 8.97300955,38.5121284 L8.97300955,33.6981123 L23.8721537,33.6981123 L23.8721537,38.5121284 L23.8721537,38.5121284 Z" id="Shape"></path>
                        <path d="M21.2115922,46.0005978 L11.633571,46.0005978 C11.339845,46.0005978 11.1014587,46.2402288 11.1014587,46.5354884 C11.1014587,46.8307481 11.339845,47.0703791 11.633571,47.0703791 L21.2115922,47.0703791 C21.5053182,47.0703791 21.7437045,46.8307481 21.7437045,46.5354884 C21.7437045,46.2402288 21.5058503,46.0005978 21.2115922,46.0005978 L21.2115922,46.0005978 Z" id="Shape"></path>
                        <path d="M17.7528623,48.1401604 L15.0923009,48.1401604 C14.7985749,48.1401604 14.5601886,48.3797915 14.5601886,48.6750511 C14.5601886,48.9703108 14.7985749,49.2099418 15.0923009,49.2099418 L17.7528623,49.2099418 C18.0465883,49.2099418 18.2849746,48.9703108 18.2849746,48.6750511 C18.2849746,48.3797915 18.0471204,48.1401604 17.7528623,48.1401604 L17.7528623,48.1401604 Z" id="Shape"></path>
                        <path d="M21.7437045,43.3261444 L11.1014587,43.3261444 C10.8077327,43.3261444 10.5693464,43.5657754 10.5693464,43.8610351 C10.5693464,44.1562947 10.8077327,44.3959257 11.1014587,44.3959257 L21.7437045,44.3959257 C22.0374305,44.3959257 22.2758168,44.1562947 22.2758168,43.8610351 C22.2758168,43.5657754 22.0379626,43.3261444 21.7437045,43.3261444 L21.7437045,43.3261444 Z" id="Shape"></path>
                        <path d="M16.0059377,26.8985821 C16.0171121,26.9130241 16.0341396,26.918373 16.0469103,26.9312104 C16.0634058,26.9483269 16.0729838,26.9702574 16.0921399,26.9852344 C16.1144886,27.0028858 16.14003,27.0109091 16.163975,27.0248163 C16.182599,27.0355141 16.1996266,27.0467468 16.2193147,27.0553051 C16.2852967,27.0831194 16.353407,27.1013057 16.4225816,27.1013057 L16.4225816,27.1013057 L16.4225816,27.1013057 C16.4922883,27.1013057 16.5603987,27.0831194 16.6258485,27.0553051 C16.6455367,27.0472817 16.6620322,27.0355141 16.6811882,27.0248163 C16.7051332,27.011444 16.7306746,27.0028858 16.7530234,26.9852344 C16.7721794,26.9697226 16.7817574,26.9483269 16.7982529,26.9312104 C16.8104915,26.918373 16.8275191,26.9130241 16.8392255,26.8985821 L23.224573,18.8062211 C23.4070875,18.5746135 23.3687755,18.2381672 23.1383708,18.0546997 C22.9079662,17.872302 22.5737997,17.9102792 22.3907531,18.141352 L16.4225816,25.705241 L10.4544102,18.141352 C10.2713635,17.9097444 9.93719702,17.8717671 9.7067924,18.0546997 C9.47638778,18.2381672 9.4380757,18.5751484 9.62059021,18.8062211 L16.0059377,26.8985821 L16.0059377,26.8985821 Z" id="Shape"></path>
                    </g>
                </g>
            </g>
        </g>
    </g>
</svg>