<?xml version="1.0" encoding="UTF-8" standalone="no"?>
<svg width="32px" height="32px" viewBox="0 0 32 32" version="1.1" xmlns="http://www.w3.org/2000/svg" xmlns:xlink="http://www.w3.org/1999/xlink">
    <!-- Generator: Sketch 39.1 (31720) - http://www.bohemiancoding.com/sketch -->
    <title>insta</title>
    <desc>Created with Sketch.</desc>
    <defs></defs>
    <g id="Welcome" stroke="none" stroke-width="1" fill="none" fill-rule="evenodd">
        <g id="Aloha---Desktop" transform="translate(-363.000000, -3323.000000)">
            <g id="Footer" transform="translate(0.000000, 3175.000000)">
                <g id="insta" transform="translate(363.000000, 147.000000)">
                    <g id="Group">
                        <path d="M16,32.62 C7.385,32.62 0.375,25.61 0.375,16.995 C0.375,8.38 7.385,1.37 16,1.37 C24.615,1.37 31.625,8.38 31.625,16.995 C31.625,25.61 24.615,32.62 16,32.62 L16,32.62 Z" id="Shape" fill="#FFFFFF"></path>
                        <path d="M16,1.745 C24.409,1.745 31.25,8.586 31.25,16.995 C31.25,25.404 24.409,32.245 16,32.245 C7.591,32.245 0.75,25.404 0.75,16.995 C0.75,8.586 7.591,1.745 16,1.745 L16,1.745 Z M16,0.995 C7.163,0.995 0,8.158 0,16.995 C0,25.831 7.163,32.995 16,32.995 C24.837,32.995 32,25.831 32,16.995 C32,8.158 24.837,0.995 16,0.995 L16,0.995 L16,0.995 Z" id="Shape" fill="#E5E5E5"></path>
                    </g>
                    <path d="M22.057,8.924 L9.943,8.924 C8.803,8.924 7.924,9.803 7.924,10.943 L7.924,23.056 C7.924,24.196 8.803,25.075 9.943,25.075 L22.056,25.075 C23.196,25.075 24.075,24.196 24.075,23.056 L24.075,10.943 C24.076,9.803 23.196,8.924 22.057,8.924 L22.057,8.924 Z M16.012,13.827 C17.803,13.827 19.255,15.234 19.255,16.969 C19.255,18.704 17.803,20.111 16.012,20.111 C14.222,20.111 12.77,18.703 12.77,16.969 C12.77,15.234 14.222,13.827 16.012,13.827 L16.012,13.827 Z M22.057,22.552 C22.057,22.906 21.906,23.057 21.552,23.057 L10.448,23.057 C10.095,23.057 9.943,22.906 9.943,22.552 L9.943,15.486 L11.201,15.76 C11.066,16.199 10.993,16.663 10.993,17.145 C10.993,19.829 13.241,22.008 16.011,22.008 C18.783,22.008 21.03,19.83 21.03,17.145 C21.03,16.663 20.957,16.199 20.822,15.76 L22.056,15.486 L22.056,22.552 L22.057,22.552 Z M22.057,13.467 C22.057,13.746 21.831,13.972 21.552,13.972 L19.533,13.972 C19.254,13.972 19.028,13.746 19.028,13.467 L19.028,11.448 C19.028,11.169 19.254,10.943 19.533,10.943 L21.552,10.943 C21.831,10.943 22.057,11.169 22.057,11.448 L22.057,13.467 L22.057,13.467 Z" id="Shape" fill="#333333"></path>
                </g>
            </g>
        </g>
    </g>
</svg>