<?xml version="1.0" encoding="UTF-8" standalone="no"?>
<svg width="32px" height="32px" viewBox="0 0 32 32" version="1.1" xmlns="http://www.w3.org/2000/svg" xmlns:xlink="http://www.w3.org/1999/xlink">
    <!-- Generator: Sketch 39.1 (31720) - http://www.bohemiancoding.com/sketch -->
    <title>linkedin</title>
    <desc>Created with Sketch.</desc>
    <defs></defs>
    <g id="Welcome" stroke="none" stroke-width="1" fill="none" fill-rule="evenodd">
        <g id="Aloha---Desktop" transform="translate(-605.000000, -2494.000000)">
            <g id="About-Us" transform="translate(185.000000, 1887.000000)">
                <g id="About-Us-1" transform="translate(318.000000, 85.000000)">
                    <g id="Group-2" transform="translate(61.000000, 521.000000)">
                        <g id="linkedin" transform="translate(41.000000, 0.000000)">
                            <g id="Group">
                                <path d="M15.52,32.614 C7.16606061,32.614 0.368484848,25.604 0.368484848,16.989 C0.368484848,8.374 7.16606061,1.364 15.52,1.364 C23.8739394,1.364 30.6715152,8.374 30.6715152,16.989 C30.6715152,25.604 23.8739394,32.614 15.52,32.614 L15.52,32.614 Z" id="Shape" fill="#FFFFFF"></path>
                                <path d="M15.52,1.739 C23.6741818,1.739 30.3078788,8.58 30.3078788,16.989 C30.3078788,25.398 23.6741818,32.239 15.52,32.239 C7.36581818,32.239 0.732121212,25.398 0.732121212,16.989 C0.732121212,8.58 7.36581818,1.739 15.52,1.739 L15.52,1.739 Z M15.52,0.989 C6.95078788,0.989 0.00484848485,8.152 0.00484848485,16.989 C0.00484848485,25.825 6.95078788,32.989 15.52,32.989 C24.0892121,32.989 31.0351515,25.825 31.0351515,16.989 C31.0351515,8.153 24.0892121,0.989 15.52,0.989 L15.52,0.989 L15.52,0.989 Z" id="Shape" fill="#E5E5E5"></path>
                            </g>
                            <path d="M23.5626667,23.932 L23.5626667,17.795 C23.5626667,14.507 21.8608485,12.977 19.5907879,12.977 C17.7590303,12.977 16.9386667,14.016 16.4819394,14.745 L16.4819394,13.228 L13.0317576,13.228 C13.0773333,14.233 13.0317576,23.932 13.0317576,23.932 L16.4819394,23.932 L16.4819394,17.954 C16.4819394,17.635 16.5042424,17.315 16.5953939,17.087 C16.8446061,16.448 17.4118788,15.786 18.3650909,15.786 C19.6140606,15.786 20.1134545,16.767 20.1134545,18.206 L20.1134545,23.933 L23.5626667,23.932 L23.5626667,23.932 L23.5626667,23.932 Z M9.39636364,11.767 C10.5987879,11.767 11.3483636,10.944 11.3483636,9.917 C11.3260606,8.867 10.5987879,8.068 9.41866667,8.068 C8.23854545,8.068 7.46763636,8.866 7.46763636,9.916 C7.46763636,10.944 8.21624242,11.766 9.3750303,11.766 L9.39636364,11.766 L9.39636364,11.767 Z M11.1214545,23.932 L11.1214545,13.228 L7.67224242,13.228 L7.67224242,23.932 L11.1214545,23.932 L11.1214545,23.932 Z" id="Shape" fill="#333333"></path>
                        </g>
                    </g>
                </g>
            </g>
        </g>
    </g>
</svg>