<?xml version="1.0" encoding="UTF-8" standalone="no"?>
<svg viewBox="0 0 404 181" version="1.1" xmlns="http://www.w3.org/2000/svg" xmlns:xlink="http://www.w3.org/1999/xlink">
    <!-- Generator: Sketch 39.1 (31720) - http://www.bohemiancoding.com/sketch -->
    <title>logo</title>
    <desc>Created with Sketch.</desc>
    <defs>
        <polygon id="path-1" points="0.461035294 18.6074766 19.5576739 18.6074766 19.5576739 0.382806542 0.461035294 0.382806542"></polygon>
        <polygon id="path-3" points="0.00118823529 19.2020957 19.4237429 19.2020957 19.4237429 0.493631238 0.00118823529 0.493631238 0.00118823529 19.2020957"></polygon>
    </defs>
    <g id="Welcome" stroke="none" stroke-width="1" fill="none" fill-rule="evenodd">
        <g id="Aloha---Desktop" transform="translate(-438.000000, -230.000000)">
            <g id="Header" transform="translate(0.000000, -190.000000)">
                <g id="logo" transform="translate(438.000000, 420.000000)">
                    <g id="Page-1">
                        <path d="M106.191061,86.8794925 C111.585649,73.9777449 118.275413,59.5687916 124.965178,46.8818757 C113.743145,58.7077729 100.363615,73.3315579 86.5529261,87.3091561 C89.143279,87.3091561 91.9492118,87.5239879 94.5378672,87.5239879 C99.0701361,87.7405112 102.953968,87.5239879 106.191061,86.8794925 M78.7852622,97.8460626 L75.7637496,97.8460626 C63.6793966,109.888483 51.5950437,120.856745 39.2951109,130.963988 C27.210758,141.071231 19.010237,146.017436 14.4779681,146.017436 C10.3785563,146.017436 6.92588403,143.436072 4.11995126,138.060203 C1.31571597,132.684334 -0.195040336,129.02881 0.0205394958,127.308464 C0.667278992,124.512268 1.96245546,123.006754 4.11995126,123.006754 C4.5528084,123.006754 4.76669076,123.221586 4.76669076,123.65125 L4.33553109,124.941932 C4.11995126,126.877109 5.41512773,127.95296 8.65222017,127.95296 C20.7365731,127.95296 41.0214471,114.190193 63.248237,95.2663897 C56.9896319,94.1905393 53.3213798,93.1146888 51.8106235,92.0405299 C46.4160353,88.5998383 44.4741193,84.944315 45.9848756,80.859128 C47.4939345,76.7722495 48.3579513,75.9129224 48.3579513,78.0629318 C48.3579513,78.7074271 49.2219681,79.5684458 51.163884,80.6426047 C54.399279,82.7943056 61.9530605,84.7294832 73.8218336,86.2333056 C91.9492118,70.1056981 109.210876,53.117072 125.611918,35.6987822 C142.228539,18.2804925 152.802136,6.66773551 157.549985,1.07703458 C158.629582,0.430847664 160.13864,0.00118411215 161.649397,0.00118411215 C165.964388,0.00118411215 168.554741,2.79738037 169.203178,8.17324953 C170.065497,13.5491187 170.281077,18.0656607 169.634338,21.5046607 C169.418758,22.5805112 168.772018,23.4415299 167.692422,24.300857 C159.707481,30.9674084 129.928607,88.3850065 121.943666,127.523296 C119.353313,138.704698 121.081346,141.071231 121.081346,142.791577 C120.217329,146.232268 114.174304,146.4471 112.447968,146.4471 C107.05338,146.4471 102.091649,144.941586 97.9905395,141.930558 C93.8911277,138.704698 92.1647916,135.264007 93.0271109,131.393651 C93.4582706,128.597455 94.3222874,124.082605 95.8330437,117.416053 C97.3421025,110.749502 99.0701361,104.512614 101.227632,98.9219131 C94.7534471,99.5664084 87.201363,99.1367449 78.7852622,97.8460626" id="Fill-1" fill="#FEFEFE"></path>
                        <path d="M181.982818,70.3604514 C174.213457,82.6177037 167.308113,95.521143 161.266785,108.639414 C174.429037,94.8766477 196.440247,59.6087131 196.440247,52.7273299 C196.440247,52.0828346 196.009087,51.6514794 195.362348,51.6514794 C194.282751,51.6514794 189.966062,57.8883673 181.982818,70.3604514 M186.730667,108.208059 C186.94455,107.778395 187.161827,107.563564 187.377407,107.563564 C188.672583,107.563564 189.319323,108.639414 189.319323,111.004255 C189.319323,111.433919 189.319323,111.865274 189.103743,112.078414 C188.239726,114.015283 184.140314,120.250479 176.80381,130.574246 C169.467306,140.894629 160.835625,146.055666 151.124348,146.055666 C142.708247,146.055666 135.154466,137.670461 135.154466,126.272536 C135.154466,120.681835 137.098079,112.724601 140.981911,102.617358 C144.865743,92.510115 149.398012,82.402872 154.7926,72.5104607 C160.187188,62.4049093 165.581776,53.8014888 170.978062,46.4904421 C176.37265,38.9645636 180.687642,35.3090402 183.709155,35.3090402 C192.125255,35.3090402 200.108499,42.6200869 200.108499,51.4366477 C200.108499,62.8345729 171.840382,106.919068 158.029692,116.165293 C155.439339,122.831844 152.419524,129.06704 152.419524,135.735283 C152.419524,138.529788 153.497424,139.82047 155.656617,139.82047 C157.165676,139.82047 159.540449,138.959451 162.777541,137.024274 C170.760785,132.509423 178.745726,122.831844 186.730667,108.208059" id="Fill-3" fill="#FEFEFE"></path>
                        <path d="M216.936966,103.478038 C216.290227,108.853907 215.859067,113.368758 215.859067,117.025973 C215.859067,121.11116 216.505807,123.907356 217.800983,125.627702 C223.411151,118.96115 226.863824,111.864936 228.37458,104.337365 C229.885336,96.8114869 228.59016,93.1559636 224.490748,93.1559636 C224.273471,93.1559636 224.057891,93.3707953 224.057891,93.3707953 C220.174059,94.8763093 217.800983,98.1021692 216.936966,103.478038 M213.917151,131.003571 C209.816042,128.207375 207.658546,122.831506 207.658546,115.305627 C207.658546,109.283571 208.305286,106.274235 210.680059,99.3928514 C201.184361,110.359421 196.436513,123.476001 196.436513,132.292562 C196.436513,137.025627 197.947269,139.390468 201.184361,139.390468 C204.852613,139.390468 209.169303,136.594272 213.917151,131.003571 M228.159,81.3283748 C233.338008,83.4783841 235.926664,87.7784028 235.926664,94.2301224 C235.926664,100.037347 234.847067,105.413216 232.905151,110.14459 C230.963235,114.65944 227.294983,120.896328 221.684815,128.637038 C226.863824,130.788739 231.611672,129.068393 236.142244,123.692524 C240.674513,118.316655 243.911605,113.800113 245.853521,110.359421 C245.853521,110.14459 246.069101,109.929758 246.501958,109.929758 C248.011017,109.929758 248.875034,110.789085 248.875034,112.724263 C248.875034,112.939094 248.875034,113.368758 248.659454,113.585281 C245.853521,119.175982 241.754109,124.33702 236.575101,129.283225 C231.396092,134.014599 225.353067,135.088758 218.447723,132.723917 C211.111218,141.540478 204.421454,146.05702 198.595706,146.05702 C195.574193,146.05702 191.473084,144.336674 186.509655,140.895982 C181.547924,137.455291 178.957571,131.648066 178.957571,123.476001 C178.957571,113.800113 182.194664,103.907702 188.668849,93.5856271 C195.141336,83.0487206 203.341857,77.8876832 213.484294,77.8876832 C218.232143,77.8876832 223.195571,78.9618421 228.159,81.3283748" id="Fill-5" fill="#FEFEFE"></path>
                        <path d="M247.577311,140.035133 C243.045042,136.809273 240.887546,132.292731 240.887546,126.272366 C240.887546,122.616843 243.260622,115.73546 248.008471,105.628217 C252.756319,95.3061421 258.150908,84.7692355 263.976655,74.0158056 C270.017983,63.0492355 275.628151,53.3716561 281.024437,44.9847589 C286.419025,36.5995533 289.871697,32.297843 291.166874,32.297843 C295.481866,32.297843 298.718958,34.6643757 300.876454,39.6088897 C303.035647,44.5550953 303.682387,47.9957869 302.60279,50.3623196 L295.266286,62.1899084 L281.671176,84.7692355 L268.507227,108.639245 C264.623395,116.165123 262.681479,120.896497 262.681479,123.046507 L262.681479,123.692693 C263.114336,123.692693 265.271832,120.896497 269.155664,115.090964 L282.104034,95.9506374 C286.851882,88.8544224 291.382454,82.4043944 295.481866,76.5971701 C299.798555,70.7899458 302.60279,67.7806093 303.682387,67.7806093 C307.136756,67.7806093 310.803311,69.0712916 314.687143,71.8657963 C318.572672,74.4471607 320.514588,76.8120019 320.514588,79.1785346 C320.514588,84.339572 297.639361,118.746488 297.639361,136.594441 C297.639361,138.099955 298.072218,138.74445 299.151815,138.74445 C303.249529,138.74445 310.372151,128.853731 320.947445,109.28374 C321.376908,108.854077 321.809765,108.639245 322.025345,108.639245 C323.104941,108.639245 323.751681,109.713404 323.751681,111.865105 C323.751681,112.5096 323.536101,113.155787 323.320521,113.58545 C321.161328,117.670637 317.493076,123.907525 312.314067,132.292731 C307.136756,140.68132 301.95605,144.766507 296.777042,144.766507 C288.145361,144.766507 279.729261,135.949946 279.729261,124.981684 C279.729261,117.455806 283.828672,107.133731 288.360941,97.0264879 C282.750773,104.983721 276.925025,113.800282 271.09758,123.046507 C265.271832,132.292731 261.817462,138.74445 260.739563,142.831329 C260.308403,144.12032 259.230504,144.766507 257.286891,144.766507 C255.344975,144.766507 252.107882,143.260993 247.577311,140.035133" id="Fill-7" fill="#FEFEFE"></path>
                        <path d="M361.728529,126.057535 C361.728529,122.831675 362.375269,119.176151 363.454866,115.090964 C364.532765,111.004086 365.181202,108.854077 365.181202,108.854077 C364.101605,108.854077 360.217773,113.368927 353.959168,122.402011 C347.702261,131.218572 342.738832,137.45546 339.28616,140.68132 C336.697504,143.475824 334.753891,144.766507 333.460412,144.766507 C331.516798,144.766507 328.279706,143.907179 323.316277,142.185142 C318.352849,140.464796 315.979773,136.379609 315.979773,129.92789 C315.979773,120.25031 319.863605,109.068908 327.850244,96.5968243 C335.833487,83.9082168 343.387269,77.671329 350.075336,77.671329 C354.821487,77.671329 359.138176,79.6081981 363.022008,83.693385 C367.123118,87.778572 369.065034,91.2209551 369.065034,94.0154598 C369.065034,95.3061421 367.338697,95.9506374 364.101605,95.9506374 C346.624361,95.9506374 334.969471,128.853731 334.969471,136.164778 C334.969471,137.024105 335.186748,137.45546 335.833487,137.45546 C336.697504,137.45546 360.217773,103.693039 372.302126,92.9413009 C373.166143,92.295114 375.754798,90.1451047 377.265555,90.1451047 C380.719924,90.1451047 383.52416,91.6506187 385.466076,94.8764785 C387.623571,98.1023383 388.703168,100.250656 388.703168,101.541338 C388.703168,103.907871 387.407992,108.20789 384.819336,114.874441 C382.228983,121.540993 380.933807,126.918553 380.933807,131.00374 C380.933807,134.874095 381.796126,136.809273 383.306882,136.809273 C385.466076,136.809273 388.91705,132.724086 393.880479,124.337189 C398.843908,115.950292 401.218681,111.648581 401.218681,111.648581 C402.298277,111.648581 404.455773,114.229946 403.807336,115.304105 C402.727739,116.81131 388.91705,144.766507 381.580546,144.766507 C370.36021,144.766507 361.728529,138.960974 361.728529,126.057535" id="Fill-9" fill="#FEFEFE"></path>
                        <path d="M145.496187,179.832804 L139.022002,179.832804 L137.565565,174.671766 L139.18496,174.187972 L139.831699,176.446243 C141.384892,177.735234 143.068792,178.22072 145.496187,178.22072 C146.628405,177.735234 147.438103,176.606944 147.438103,175.316262 C147.438103,173.704178 145.820405,172.89729 143.715531,172.090402 C141.19138,171.122813 138.212304,170.155224 138.212304,167.252458 C138.212304,164.510393 140.963918,162.898308 143.391313,162.091421 L148.572018,162.091421 L149.865497,161.607626 L149.865497,166.607963 L148.2478,166.607963 L148.2478,164.994187 C146.952624,164.026598 145.657447,163.703505 143.391313,163.703505 C142.420355,164.090879 141.612355,164.994187 141.612355,166.124168 C141.612355,167.575551 143.068792,168.059346 145.334926,168.864542 C148.05259,169.833822 150.836455,170.962112 150.836455,174.187972 C150.836455,176.930037 148.086539,179.025916 145.496187,179.832804" id="Fill-11" fill="#FEFEFE"></path>
                        <polygon id="Fill-13" fill="#FEFEFE" points="176.252639 166.607286 176.252639 164.672108 173.984807 164.025921 171.72037 164.025921 171.72037 177.89695 172.042891 178.220043 174.310723 178.220043 174.310723 179.832127 165.570403 179.832127 165.570403 178.220043 166.863882 178.220043 168.159059 177.89695 168.159059 164.025921 165.892924 164.025921 163.628487 164.672108 163.628487 166.607286 162.009092 166.607286 162.009092 161.446249 163.789748 162.090744 176.089681 162.090744 177.870336 161.446249 177.870336 166.607286"></polygon>
                        <g id="Group-17" transform="translate(188.420168, 161.709121)">
                            <mask id="mask-2" fill="white">
                                <use xlink:href="#path-1"></use>
                            </mask>
                            <g id="Clip-16"></g>
                            <path d="M18.4254555,1.99489065 L17.130279,2.31798411 L17.130279,14.8983299 L16.3205815,15.7035262 C15.351321,16.6728065 13.2464471,18.6079841 9.84639664,18.6079841 C5.8013042,18.6079841 2.88843025,15.8659187 2.88843025,12.4793579 L2.88843025,2.31798411 L2.56421176,1.99489065 L0.461035294,1.99489065 L0.461035294,0.382806542 L9.03839664,0.382806542 L9.03839664,1.99489065 L7.90448067,1.99489065 L6.6093042,2.31798411 L6.6093042,11.6724701 C6.6093042,14.8983299 8.87713613,16.0266196 11.1415731,16.0266196 C12.7609681,16.0266196 14.3786655,14.8983299 14.8641445,13.9307411 L14.8641445,2.31798411 L14.5416235,1.99489065 L12.4367496,1.99489065 L12.4367496,0.382806542 L19.5576739,0.382806542 L19.5576739,1.99489065 L18.4254555,1.99489065 Z" id="Fill-15" fill="#FEFEFE" mask="url(#mask-2)"></path>
                        </g>
                        <path d="M226.75824,163.704012 L225.948543,163.704012 L225.948543,176.928853 C226.75824,177.57504 228.053417,177.896442 229.509854,177.896442 C232.261467,177.896442 234.688862,174.993676 234.688862,170.96262 C234.688862,165.63919 230.319551,163.704012 226.75824,163.704012 M231.45177,179.833311 L219.800274,179.833311 L219.800274,178.219536 L220.932492,178.219536 L222.225971,177.896442 L222.225971,164.027106 L221.90345,163.704012 L219.800274,163.704012 L219.800274,162.091928 L227.890459,162.091928 C233.232425,162.091928 238.735652,164.671601 238.735652,170.155732 C238.735652,174.993676 234.688862,178.219536 231.45177,179.833311" id="Fill-18" fill="#FEFEFE"></path>
                        <polygon id="Fill-20" fill="#FEFEFE" points="250.716289 179.832804 250.716289 178.22072 252.011466 178.22072 253.306642 177.897626 253.306642 164.026598 252.982424 163.703505 250.716289 163.703505 250.716289 162.091421 259.456608 162.091421 259.456608 163.703505 258.161432 163.703505 256.866255 164.026598 256.866255 177.897626 257.190474 178.22072 259.456608 178.22072 259.456608 179.832804"></polygon>
                        <g id="Group-24" transform="translate(271.596639, 161.114502)">
                            <mask id="mask-4" fill="white">
                                <use xlink:href="#path-3"></use>
                            </mask>
                            <g id="Clip-23"></g>
                            <path d="M7.77054958,2.58950974 C5.82863361,3.88019199 3.88671765,6.29916395 3.88671765,9.52502376 C3.88671765,15.492949 8.74150756,17.1050331 11.6543815,17.1050331 C13.5962975,15.8143509 15.5399109,13.3953789 15.5399109,10.1695191 C15.5399109,4.20159385 10.6834235,2.58950974 7.77054958,2.58950974 M9.38824706,19.2026032 C5.18019664,19.2026032 0.00118823529,16.4605378 0.00118823529,10.3319116 C0.00118823529,5.0084817 5.18019664,0.493631238 10.036684,0.493631238 C14.2447345,0.493631238 19.4237429,3.23400507 19.4237429,9.36432283 C19.4237429,14.6860611 14.2447345,19.2026032 9.38824706,19.2026032" id="Fill-22" fill="#FEFEFE" mask="url(#mask-4)"></path>
                        </g>
                    </g>
                </g>
            </g>
        </g>
    </g>
</svg>
