<?xml version="1.0" encoding="UTF-8" standalone="no"?>
<svg width="52px" height="47px" viewBox="0 0 52 47" version="1.1" xmlns="http://www.w3.org/2000/svg" xmlns:xlink="http://www.w3.org/1999/xlink">
    <!-- Generator: Sketch 39.1 (31720) - http://www.bohemiancoding.com/sketch -->
    <title>planning</title>
    <desc>Created with Sketch.</desc>
    <defs></defs>
    <g id="Welcome" stroke="none" stroke-width="1" fill="none" fill-rule="evenodd">
        <g id="Aloha---Desktop" transform="translate(-373.000000, -1591.000000)" fill="#FFFFFF">
            <g id="Our-Process" transform="translate(0.000000, 1337.000000)">
                <g id="Planning" transform="translate(333.163909, 207.000000)">
                    <g id="planning" transform="translate(39.936428, 46.619945)">
                        <g id="Group">
                            <path d="M47.8821914,0.520107524 L3.34061801,0.520107524 C1.49826718,0.520107524 0,2.00589239 0,3.8328943 L0,33.0809366 C0,34.9079386 1.49826718,36.3937234 3.34061801,36.3937234 L25.0546351,36.3937234 L25.0546351,39.6247948 L19.0482039,46.0350372 C18.8388585,46.2586503 18.8516642,46.6075972 19.0771559,46.8151985 C19.1840557,46.91403 19.3204642,46.9631696 19.456316,46.9631696 C19.6055303,46.9631696 19.7547446,46.9040916 19.8638714,46.7870398 L25.6258807,40.6374033 L31.3578245,46.7859355 C31.4675081,46.9035395 31.6167224,46.9631696 31.7670502,46.9631696 C31.9023452,46.9631696 32.0376402,46.9145821 32.14454,46.8163028 C32.3705885,46.6092536 32.3845077,46.2597546 32.1757191,46.0361415 L26.1681744,39.5922191 L26.1681744,36.3937234 L47.8821914,36.3937234 C49.7245423,36.3937234 51.2228094,34.9079386 51.2228094,33.0809366 L51.2228094,3.8328943 C51.2228094,2.00644453 49.7245423,0.520107524 47.8821914,0.520107524 L47.8821914,0.520107524 Z M50.1092701,33.0809366 C50.1092701,34.2989379 49.1104253,35.2894612 47.8821914,35.2894612 L3.34061801,35.2894612 C2.11238412,35.2894612 1.11353934,34.2989379 1.11353934,33.0809366 L1.11353934,3.8328943 C1.11353934,2.61489303 2.11238412,1.62436978 3.34061801,1.62436978 L47.8821914,1.62436978 C49.1104253,1.62436978 50.1092701,2.61489303 50.1092701,3.8328943 L50.1092701,33.0809366 L50.1092701,33.0809366 Z" id="Shape"></path>
                            <path d="M25.7801059,10.1398882 C25.4805638,10.063142 25.1782379,10.2431367 25.103074,10.5385269 L21.8381767,23.2248438 C21.7412988,23.5356937 21.4623572,23.5517055 21.3810688,23.5550183 C21.2981101,23.553914 21.0213956,23.5263074 20.935653,23.2265002 L18.6311834,14.3289071 C18.4563577,13.7143851 17.9508109,13.2809622 17.3121961,13.1970383 C16.6774786,13.1153229 16.07227,13.402431 15.7426624,13.9512494 C15.7304134,13.9716782 15.719278,13.9932114 15.7092562,14.0152966 L12.5451342,21.3001147 C12.4616187,21.4221357 12.3296643,21.4955691 12.1793365,21.503299 C12.016203,21.5137895 11.8714429,21.4425646 11.805744,21.3586406 L9.99735615,18.383206 C9.73678795,18.0342591 9.35373042,17.8128545 8.91889331,17.7592978 C8.4840562,17.7035325 8.05868417,17.8272099 7.71961144,18.1021712 L4.65793504,20.5823443 C4.41963762,20.775038 4.38400436,21.1228806 4.57887375,21.3591928 C4.77374313,21.5949527 5.12395125,21.6302891 5.36224867,21.4375954 L8.42448184,18.9574223 C8.52525715,18.8757069 8.65053033,18.8370578 8.7813712,18.8552781 C8.91054176,18.8712899 9.02523631,18.9369935 9.07256174,18.9971758 L10.8809496,21.9726104 C11.1971948,22.3966472 11.7077526,22.6329593 12.2344567,22.6070091 C12.7656149,22.5805068 13.2449936,22.2945029 13.517254,21.8412032 C13.5295029,21.8207744 13.5406383,21.7992413 13.5506602,21.777156 L16.715339,14.4917858 C16.8639965,14.2714854 17.097283,14.2830802 17.1668792,14.2924664 C17.2392592,14.3018527 17.481454,14.3543051 17.5560612,14.6165674 L19.8605308,23.5141606 C20.0565137,24.2010117 20.6478031,24.6504464 21.3677063,24.6592805 L21.3888636,24.6592805 C22.0993017,24.6592805 22.6917046,24.2258576 22.9094015,23.5240989 L26.1815369,10.8112797 C26.2578143,10.5158895 26.0779777,10.214978 25.7801059,10.1398882 L25.7801059,10.1398882 Z" id="Shape"></path>
                            <path d="M45.2837474,17.9050604 L30.9936971,17.9050604 C30.6863602,17.9050604 30.4369274,18.1524152 30.4369274,18.4571915 C30.4369274,18.7619679 30.6863602,19.0093227 30.9936971,19.0093227 L45.2843042,19.0093227 C45.591641,19.0093227 45.8410738,18.7619679 45.8410738,18.4571915 C45.8410738,18.1524152 45.591641,17.9050604 45.2837474,17.9050604 L45.2837474,17.9050604 Z" id="Shape"></path>
                            <path d="M45.2837474,23.4263717 L30.9936971,23.4263717 C30.6863602,23.4263717 30.4369274,23.6737265 30.4369274,23.9785028 C30.4369274,24.2832792 30.6863602,24.530634 30.9936971,24.530634 L45.2843042,24.530634 C45.591641,24.530634 45.8410738,24.2832792 45.8410738,23.9785028 C45.8410738,23.6737265 45.591641,23.4263717 45.2837474,23.4263717 L45.2837474,23.4263717 Z" id="Shape"></path>
                            <path d="M45.2837474,12.3837491 L30.9936971,12.3837491 C30.6863602,12.3837491 30.4369274,12.6311039 30.4369274,12.9358802 C30.4369274,13.2406566 30.6863602,13.4880114 30.9936971,13.4880114 L45.2843042,13.4880114 C45.591641,13.4880114 45.8410738,13.2406566 45.8410738,12.9358802 C45.8410738,12.6311039 45.591641,12.3837491 45.2837474,12.3837491 L45.2837474,12.3837491 Z" id="Shape"></path>
                        </g>
                    </g>
                </g>
            </g>
        </g>
    </g>
</svg>