<?xml version="1.0" encoding="UTF-8" standalone="no"?>
<svg width="52px" height="55px" viewBox="0 0 52 55" version="1.1" xmlns="http://www.w3.org/2000/svg" xmlns:xlink="http://www.w3.org/1999/xlink">
    <!-- Generator: Sketch 39.1 (31720) - http://www.bohemiancoding.com/sketch -->
    <title>usertesting</title>
    <desc>Created with Sketch.</desc>
    <defs></defs>
    <g id="Welcome" stroke="none" stroke-width="1" fill="none" fill-rule="evenodd">
        <g id="Aloha---Desktop" transform="translate(-534.000000, -1582.000000)" fill="#FFFFFF">
            <g id="Our-Process" transform="translate(0.000000, 1337.000000)">
                <g id="User-Testing" transform="translate(493.327819, 207.000000)">
                    <g id="usertesting" transform="translate(40.672181, 38.000000)">
                        <path d="M51.2301609,24.6346196 L46.1168276,19.4490761 C45.6494253,18.975 44.8275862,18.9690217 44.3548046,19.4365217 L42.7392184,21.0309239 C42.2502989,21.5139674 42.2443218,22.3042935 42.7314483,22.7986957 L47.9081379,27.9250543 C48.024092,28.039837 48.175908,28.0978261 48.3283218,28.0978261 C48.4801379,28.0978261 48.631954,28.0404348 48.7485057,27.9256522 L51.2247816,25.4799457 C51.4596782,25.2473913 51.462069,24.8695652 51.2301609,24.6346196 L51.2301609,24.6346196 Z M48.3289195,26.6594565 L43.5777931,21.9539674 C43.558069,21.9342391 43.5586667,21.9019565 43.5783908,21.8822283 L45.193977,20.2878261 L44.7743908,19.8621739 L45.2657011,20.2890217 L49.9594483,25.048913 L48.3289195,26.6594565 L48.3289195,26.6594565 Z" id="Shape"></path>
                        <path d="M23.5625747,11.622337 C23.5625747,18.0310326 28.7757241,23.2446739 35.1824828,23.2446739 C41.5892414,23.2446739 46.8023908,18.0304348 46.8023908,11.622337 C46.8023908,5.21423913 41.5898391,0 35.1824828,0 C28.7751264,0 23.5625747,5.21423913 23.5625747,11.622337 L23.5625747,11.622337 Z M35.1824828,1.19565217 C40.9305747,1.19565217 45.6069885,5.87304348 45.6069885,11.622337 C45.6069885,17.3716304 40.9305747,22.0496196 35.1824828,22.0496196 C29.4343908,22.0496196 24.757977,17.3722283 24.757977,11.6229348 C24.757977,5.8736413 29.4343908,1.19565217 35.1824828,1.19565217 L35.1824828,1.19565217 Z" id="Shape"></path>
                        <path d="M38.9503908,38.8072826 C38.2654253,39.7572283 37.769931,40.4435326 37.5673103,41.0048913 C36.8787586,42.9125543 37.0801839,51.2779348 37.1584828,53.8043478 L17.061977,53.8043478 L17.0201379,50.80625 C16.9257011,46.9030435 12.2522759,46.9030435 10.2565517,46.9030435 L9.44427586,46.9078261 C9.22731034,46.9096196 9.01393103,46.915 8.80354023,46.9203804 C8.57043678,46.9269565 8.34151724,46.9329348 8.11678161,46.9329348 C7.13595402,46.9329348 6.3977931,46.8139674 5.74510345,46.2227174 C4.86170115,45.4222283 4.84974713,43.701087 4.84974713,43.6933152 L5.01411494,33.6336957 C5.01650575,33.4657065 4.94896552,33.3042935 4.82643678,33.188913 C4.70450575,33.0741304 4.54133333,33.0161413 4.37158621,33.0275 C3.62386207,33.0842935 2.94487356,32.9994022 2.27783908,32.7889674 C1.54266667,32.5558152 1.08183908,31.7995652 1.22827586,31.0660326 C1.4583908,29.9152174 2.22643678,28.7691848 3.03931034,27.5561957 C3.98547126,26.1447283 5.05714943,24.5449457 5.48570115,22.6121739 C5.99434483,20.3201087 5.99314943,18.8494565 5.4617931,18.3281522 C5.62496552,8.92733696 13.3317241,1.31402174 24.2989425,1.20163043 L25.757931,1.2626087 C26.1966437,0.86326087 26.6622529,0.494402174 27.1487816,0.152445652 L24.5445977,0 C12.7029425,0 4.264,8.34027174 4.264,18.5917935 C4.264,18.7747283 4.35066667,18.9498913 4.49411494,19.0628804 C4.55508046,19.1113043 4.7816092,20.263913 4.31898851,22.3527174 C3.93885057,24.0654891 2.97714943,25.5020652 2.04652874,26.8902174 C1.16551724,28.204837 0.333517241,29.4465217 0.056183908,30.831087 C-0.208597701,32.1534783 0.609057471,33.5135326 1.91742529,33.9284239 C2.52767816,34.1215217 3.16363218,34.2255435 3.80855172,34.2380978 L3.65434483,43.6819565 C3.65434483,43.7734239 3.66211494,45.9495109 4.9423908,47.1092935 C5.93098851,48.004837 7.05227586,48.128587 8.11678161,48.128587 C8.35167816,48.128587 8.59075862,48.1220109 8.83462069,48.1160326 C9.03783908,48.1106522 9.24464368,48.1052717 9.45383908,48.1034783 L10.2571494,48.0986957 C13.1147586,48.0986957 15.7673563,48.4304891 15.8253333,50.8289674 L15.8749425,54.4099457 C15.8797241,54.7369565 16.1457011,54.9994022 16.4726437,54.9994022 L37.7765057,54.9994022 C37.9384828,54.9994022 38.0938851,54.9336413 38.2068506,54.8164674 C38.3198161,54.6992935 38.3801839,54.5420652 38.3742069,54.3800543 C38.2648276,51.3209783 38.1088276,43.0261413 38.6921839,41.4108152 C38.838023,41.0072826 39.3155862,40.3448913 39.9204598,39.5061413 C41.3382069,37.5398913 44.8532874,34.4365761 46.5758621,29.9696196 L45.650023,29.0525543 C44.1025747,33.6546196 40.3777011,36.8284783 38.9503908,38.8072826 L38.9503908,38.8072826 Z" id="Shape"></path>
                    </g>
                </g>
            </g>
        </g>
    </g>
</svg>