<?xml version="1.0" encoding="UTF-8" standalone="no"?>
<svg width="139px" height="78px" viewBox="0 0 139 78" version="1.1" xmlns="http://www.w3.org/2000/svg" xmlns:xlink="http://www.w3.org/1999/xlink">
    <!-- Generator: Sketch 39.1 (31720) - http://www.bohemiancoding.com/sketch -->
    <title>web icon</title>
    <desc>Created with Sketch.</desc>
    <defs></defs>
    <g id="Welcome" stroke="none" stroke-width="1" fill="none" fill-rule="evenodd">
        <g id="Aloha---Desktop" transform="translate(-210.000000, -987.000000)">
            <g id="Our-Services" transform="translate(0.000000, 860.000000)">
                <g id="webmobile" transform="translate(185.000000, 127.000000)">
                    <g id="web-icon" transform="translate(25.000000, 0.000000)">
                        <g id="Group">
                            <g transform="translate(6.000000, 7.000000)" id="Oval" stroke-width="2" stroke="#323638">
                                <circle cx="0.553" cy="0.5" r="0.5"></circle>
                                <circle cx="5.953" cy="0.5" r="0.5"></circle>
                                <circle cx="11.353" cy="0.5" r="0.5"></circle>
                            </g>
                            <g id="Shape" fill="#323638">
                                <path d="M86,0.5 L6,0.5 C2.691,0.5 0,3.191 0,6.5 L0,71.5 C0,74.809 2.691,77.5 6,77.5 L86,77.5 C89.309,77.5 92,74.809 92,71.5 L92,6.5 C92,3.191 89.309,0.5 86,0.5 L86,0.5 Z M6,2.5 L86,2.5 C88.206,2.5 90,4.294 90,6.5 L90,12.155 L2,12.155 L2,6.5 C2,4.294 3.794,2.5 6,2.5 L6,2.5 Z M86,75.5 L6,75.5 C3.794,75.5 2,73.706 2,71.5 L2,14.155 L90,14.155 L90,71.5 C90,73.706 88.206,75.5 86,75.5 L86,75.5 Z"></path>
                                <path d="M68.959,38.626 L65.658,37.75 L64.882,35.619 L66.848,32.826 C67.09,32.481 67.091,32.022 66.849,31.677 L64.599,28.464 C64.357,28.119 63.926,27.962 63.518,28.072 L60.221,28.964 L58.484,27.506 L58.79,24.105 C58.828,23.686 58.598,23.288 58.217,23.109 L54.662,21.451 C54.279,21.273 53.827,21.354 53.531,21.652 L51.121,24.072 L48.888,23.678 L47.451,20.579 C47.273,20.197 46.863,19.968 46.457,20.003 L42.55,20.345 C42.13,20.382 41.779,20.678 41.671,21.085 L40.795,24.386 L38.664,25.162 L35.871,23.197 C35.526,22.954 35.067,22.953 34.722,23.196 L31.509,25.446 C31.164,25.688 31.008,26.12 31.117,26.527 L32.009,29.824 L30.55,31.56 L27.149,31.254 C26.732,31.219 26.331,31.446 26.153,31.827 L24.495,35.382 C24.317,35.764 24.397,36.216 24.696,36.513 L27.116,38.923 L26.722,41.156 L23.623,42.593 C23.241,42.77 23.011,43.168 23.047,43.587 L23.389,47.494 C23.426,47.914 23.722,48.265 24.129,48.373 L27.43,49.249 L28.206,51.38 L26.241,54.173 C25.999,54.517 25.998,54.977 26.24,55.322 L28.49,58.535 C28.732,58.88 29.161,59.035 29.571,58.927 L32.868,58.035 L34.605,59.493 L34.299,62.894 C34.261,63.313 34.491,63.711 34.872,63.89 L38.427,65.548 C38.811,65.726 39.263,65.646 39.558,65.347 L41.968,62.927 L44.201,63.321 L45.638,66.42 C45.803,66.775 46.159,67 46.545,67 C46.574,67 46.604,66.999 46.632,66.996 L50.539,66.654 C50.959,66.617 51.31,66.321 51.418,65.914 L52.294,62.613 L54.425,61.837 L57.218,63.802 C57.561,64.044 58.021,64.045 58.367,63.803 L61.58,61.553 C61.925,61.311 62.081,60.879 61.972,60.472 L61.08,57.175 L62.538,55.438 L65.94,55.744 C66.355,55.774 66.758,55.552 66.936,55.17 L68.593,51.615 C68.771,51.234 68.691,50.781 68.392,50.484 L65.972,48.074 L66.366,45.841 L69.465,44.404 C69.847,44.227 70.077,43.829 70.041,43.41 L69.699,39.503 C69.662,39.086 69.366,38.734 68.959,38.626 L68.959,38.626 Z M65.052,44.249 C64.755,44.387 64.544,44.661 64.488,44.982 L63.913,48.244 C63.856,48.566 63.96,48.896 64.192,49.126 L66.485,51.409 L65.421,53.692 L62.198,53.402 C61.872,53.376 61.553,53.505 61.343,53.756 L59.214,56.293 C59.004,56.543 58.929,56.881 59.015,57.197 L59.86,60.32 L57.797,61.764 L55.151,59.902 C54.883,59.714 54.541,59.669 54.234,59.78 L51.122,60.913 C50.814,61.025 50.581,61.28 50.497,61.596 L49.666,64.723 L47.158,64.943 L45.797,62.007 C45.659,61.71 45.385,61.499 45.064,61.443 L41.802,60.868 C41.744,60.858 41.686,60.853 41.628,60.853 C41.364,60.853 41.108,60.957 40.92,61.147 L38.637,63.44 L36.354,62.376 L36.644,59.154 C36.673,58.828 36.541,58.509 36.29,58.299 L33.753,56.17 C33.503,55.96 33.166,55.886 32.849,55.971 L29.726,56.816 L28.282,54.753 L30.144,52.107 C30.332,51.84 30.378,51.497 30.266,51.19 L29.133,48.078 C29.021,47.77 28.766,47.537 28.45,47.453 L25.323,46.622 L25.103,44.114 L28.039,42.753 C28.336,42.615 28.547,42.341 28.603,42.02 L29.178,38.758 C29.235,38.436 29.131,38.106 28.899,37.876 L26.606,35.593 L27.67,33.31 L30.892,33.6 C31.214,33.625 31.537,33.497 31.747,33.246 L33.876,30.709 C34.086,30.459 34.161,30.121 34.075,29.805 L33.23,26.682 L35.293,25.238 L37.939,27.1 C38.206,27.288 38.549,27.334 38.856,27.222 L41.968,26.089 C42.276,25.977 42.509,25.722 42.593,25.406 L43.424,22.279 L45.933,22.059 L47.294,24.995 C47.432,25.292 47.706,25.503 48.027,25.559 L51.288,26.134 C51.611,26.19 51.94,26.086 52.17,25.855 L54.453,23.562 L56.736,24.626 L56.446,27.848 C56.417,28.174 56.549,28.493 56.8,28.703 L59.337,30.832 C59.588,31.042 59.926,31.118 60.241,31.031 L63.364,30.186 L64.809,32.249 L62.947,34.895 C62.759,35.163 62.713,35.505 62.825,35.812 L63.958,38.924 C64.07,39.232 64.325,39.465 64.641,39.549 L67.768,40.38 L67.988,42.888 L65.052,44.249 L65.052,44.249 Z"></path>
                                <path d="M46.544,32.5 C40.479,32.5 35.544,37.435 35.544,43.5 C35.544,49.565 40.479,54.5 46.544,54.5 C52.609,54.5 57.544,49.565 57.544,43.5 C57.544,37.435 52.61,32.5 46.544,32.5 L46.544,32.5 Z M46.544,52.5 C41.582,52.5 37.544,48.462 37.544,43.5 C37.544,38.538 41.582,34.5 46.544,34.5 C51.506,34.5 55.544,38.538 55.544,43.5 C55.544,48.462 51.507,52.5 46.544,52.5 L46.544,52.5 Z"></path>
                            </g>
                        </g>
                        <g id="mobile-icon" transform="translate(96.000000, 0.000000)" fill="#323638">
                            <path d="M13.839,4.831 C13.011,4.831 12.339,5.503 12.339,6.331 C12.339,7.159 13.011,7.831 13.839,7.831 C14.667,7.831 15.339,7.159 15.339,6.331 C15.339,5.503 14.667,4.831 13.839,4.831" id="Fill-1"></path>
                            <path d="M21.774,67.775 C23.09,67.775 24.161,68.846 24.161,70.162 C24.161,71.478 23.09,72.549 21.774,72.549 C20.458,72.549 19.387,71.478 19.387,70.162 C19.387,68.846 20.458,67.775 21.774,67.775 M21.774,74.548 C24.193,74.548 26.161,72.58 26.161,70.161 C26.161,67.742 24.193,65.774 21.774,65.774 C19.355,65.774 17.387,67.742 17.387,70.161 C17.387,72.58 19.355,74.548 21.774,74.548" id="Fill-3"></path>
                            <path d="M26.656,5.331 L18.906,5.331 C18.354,5.331 17.906,5.779 17.906,6.331 C17.906,6.883 18.354,7.331 18.906,7.331 L26.656,7.331 C27.208,7.331 27.656,6.883 27.656,6.331 C27.656,5.779 27.208,5.331 26.656,5.331" id="Fill-5"></path>
                            <path d="M2,62.509 L2,13.809 L40.548,13.809 L40.548,62.5 L40.548,62.5 L40.548,62.509 L2,62.509 Z M40.548,71.5 C40.548,73.981 38.529,76 36.048,76 L6.5,76 C4.019,76 2,73.981 2,71.5 L2,64.508 L40.548,64.508 L40.548,71.5 Z M2,6.5 C2,4.019 4.019,2 6.5,2 L9.438,2 L10.872,2 L31.676,2 L33.11,2 L36.048,2 C38.529,2 40.548,4.019 40.548,6.5 L40.548,11.809 L2,11.809 L2,6.5 Z M42.548,60.667 L42.548,7.5 C42.548,2.916 39.632,0 36.048,0 L33.116,0 L9.432,0 L6.5,0 C2.916,0 0,2.916 0,7.5 L0,72.5 C0,75.084 2.916,78 6.5,78 L36.048,78 C39.632,78 42.548,75.084 42.548,71.5 L42.548,62.34 L42.548,62.34 L42.548,60.667 Z" id="Fill-7"></path>
                        </g>
                    </g>
                </g>
            </g>
        </g>
    </g>
</svg>